<?xml version="1.0" encoding="utf-8"?>
<!-- Generator: Adobe Illustrator 22.0.1, SVG Export Plug-In . SVG Version: 6.00 Build 0)  -->
<svg version="1.1" id="图层_1" xmlns="http://www.w3.org/2000/svg" xmlns:xlink="http://www.w3.org/1999/xlink" x="0px" y="0px"
	 viewBox="0 0 1024 1024" style="enable-background:new 0 0 1024 1024;" xml:space="preserve">
<path d="M515.3,159.9c-194.7,0-352.6,157.9-352.6,352.6s157.9,352.6,352.6,352.6s352.6-157.9,352.6-352.6S710.1,159.9,515.3,159.9z
	 M588.1,523.1L546,637.7c-0.2,0.7-0.5,1.3-0.8,2l-56.6,119.8c-8.6,18.2-25.4,32.2-46.1,38.5h0c-18.4,5.6-37.2-7.3-36.4-24.8
	l5.1-116.3c0.9-21-8-41.3-24.5-56L362.3,579c-3.2-2.8-5.6-6.3-6.9-10.2L322.5,477c-7.2-16.4-1.8-35.1,13.4-46.1l60.3-31.6
	c19.8-10.4,44.1-11.1,64.6-1.8l10.9,5c2.2,1,4.2,2.3,6.1,3.7l11.3,9.2c3.5,2.9,7.8,4.9,12.5,5.8l10.6,2.1c6.5,1.3,12.2,4.7,16.1,9.4
	l55.7,67.4C589.5,506.7,591,515.3,588.1,523.1z M511.3,318.3c0,0-28,5.7-54.2,11.1l2.6,7.7h-40.6c-3.3,0.6-5.6,0.5-7.3,0h-12.8
	l-60.7,40.5l-40.5,60.7H237v-60.7l60.7-60.7v-40.5l81-20.2l60.7,20.2L446,296l11.6-7.6l-30.9-34.5l-4-19.6l14.8-43.9l26.9,14.9
	l45.7-9.4l76.6,25.1l34.9,54.1L511.3,318.3z M775.1,438.3c0,0,18.6-15.9,18.6-31.8c0-15.9-18.6-31.8-18.6-31.8l-18.6-47.7l37.1,15.9
	l18.6,31.8v47.7L775.1,438.3z"/>
</svg>
