<?xml version="1.0" encoding="utf-8"?>
<!-- Generator: Adobe Illustrator 22.0.1, SVG Export Plug-In . SVG Version: 6.00 Build 0)  -->
<svg version="1.1" id="图层_1" xmlns="http://www.w3.org/2000/svg" xmlns:xlink="http://www.w3.org/1999/xlink" x="0px" y="0px"
	 viewBox="0 0 1024 1024" style="enable-background:new 0 0 1024 1024;" xml:space="preserve">
<style type="text/css">
	.st0{fill:#050505;}
</style>
<g>
	<path class="st0" d="M322.1,581.2h129.7c1.3-49.1,8.1-93.8,19-131.7l47.6-27.7c-16.8,38.6-29.1,93.4-31.1,158.4h179.5
		c-3.2-102.6-31.8-179.5-63.8-207.6l31.7-18.4c38.6,41.5,64.7,124.5,67.6,226.1h129.7C824.1,469,745,377.7,640,351.2l115.9-67.4
		c26.2-15.1,50.4-49.6,32.4-80.7c-13.5-23.4-59.9-35.9-87.9-27.7c-6.9,2-28.1,8.2-46.5,17.2L603.1,223l-100.7,58.1
		C442.5,236.9,358.9,177.4,320.7,160c-21-9.5-31.6-9.2-42.3-8.8c-10.7,0.4-17.1,32.7-7.6,48.2l97.9,158.9l-130.4,75.3l-117.8-63.5
		l-8.9,7.8c-13,11.4-16.6,28.9-7.8,38.9l113.9,130.6c3.9,4.4,9.6,6.6,15.8,6.7c17.3,10.1,37.6,11.7,53.9,2.2l43.5-25.3
		C326.4,547.2,323.3,563.9,322.1,581.2z"/>
	<path class="st0" d="M322.1,616.7c7.9,115.4,92.2,209.8,202.9,232.8c-41.8-39.4-70.2-126-73.1-232.8H322.1z"/>
	<path class="st0" d="M487.4,617.7c4,130.1,49,219.4,89.7,219.4s85.7-89.2,89.7-219.4H487.4z"/>
	<path class="st0" d="M629.3,849.4c110.3-22.9,194.5-116.8,202.8-231.7H702.4C699.4,724,671,810.2,629.3,849.4z"/>
</g>
</svg>
