<?xml version="1.0" encoding="utf-8"?>
<!-- Generator: Adobe Illustrator 22.0.1, SVG Export Plug-In . SVG Version: 6.00 Build 0)  -->
<svg version="1.1" id="图层_1" xmlns="http://www.w3.org/2000/svg" xmlns:xlink="http://www.w3.org/1999/xlink" x="0px" y="0px"
	 viewBox="0 0 1024 1024" style="enable-background:new 0 0 1024 1024;" xml:space="preserve">
<g>
	<path d="M339.5,181C266.3,181,207,268.3,207,375.9c0,87.7,39.4,161.8,93.5,186.3V828c0,21.4,17.5,39,39,39s39-17.5,39-39V562.2
		c54.2-24.5,93.5-98.6,93.5-186.3C472.1,268.3,412.7,181,339.5,181z"/>
	<path d="M655.3,508.4c-21.4,0-39,17.5-39,39V828c0,21.4,17.5,39,39,39s39-17.5,39-39V547.4C694.2,525.9,676.7,508.4,655.3,508.4z"
		/>
	<path d="M655.3,368.1c21.4,0,39-17.5,39-39V220c0-21.4-17.5-39-39-39s-39,17.5-39,39v109.1C616.3,350.6,633.8,368.1,655.3,368.1z"
		/>
	<path d="M776.1,181c-17.1,0-31.2,14-31.2,31.2v62.4v42.9c0,49.4-40.2,89.6-89.6,89.6s-89.6-40.2-89.6-89.6v-42.9v-62.4
		c0-17.2-14-31.2-31.2-31.2s-31.2,14-31.2,31.2v62.4v42.9c0,83.8,68.2,152,152,152s152-68.2,152-152v-42.9v-62.4
		C807.3,195,793.2,181,776.1,181z"/>
</g>
</svg>
