<?xml version="1.0" encoding="utf-8"?>
<!-- Generator: Adobe Illustrator 22.0.1, SVG Export Plug-In . SVG Version: 6.00 Build 0)  -->
<svg version="1.1" id="图层_1" xmlns="http://www.w3.org/2000/svg" xmlns:xlink="http://www.w3.org/1999/xlink" x="0px" y="0px"
	 viewBox="0 0 1024 1024" style="enable-background:new 0 0 1024 1024;" xml:space="preserve">
<g>
	<path d="M832.8,387L543,187.2c-9.4-6.5-20.3-9-30.9-8.4c-10.6-0.7-21.5,1.9-30.9,8.4L191.4,387c-22.3,15.4-28,46.2-12.6,68.5
		s46.2,28,68.5,12.6l264.8-182.6l264.8,182.6c22.3,15.4,53.2,9.7,68.5-12.6S855.1,402.4,832.8,387z"/>
	<path d="M244.2,523.2v284.9c9.3,25.2,33.6,43.3,61.9,43.3h92.6V683.5c0-21.3,17.4-38.8,38.8-38.8h149.3c21.3,0,38.8,17.4,38.8,38.8
		v167.9h89.8c31.8,0,58.5-22.7,64.7-52.7V525.4l-267.5-191L244.2,523.2z"/>
</g>
</svg>
