<?xml version="1.0" encoding="utf-8"?>
<!-- Generator: Adobe Illustrator 22.0.1, SVG Export Plug-In . SVG Version: 6.00 Build 0)  -->
<svg version="1.1" id="图层_1" xmlns="http://www.w3.org/2000/svg" xmlns:xlink="http://www.w3.org/1999/xlink" x="0px" y="0px"
	 viewBox="0 0 1024 1024" style="enable-background:new 0 0 1024 1024;" xml:space="preserve">
<g>
	<path d="M733.7,351.8H186.3c-30.9,0-56.2,25.3-56.2,56.2v367.4c0,30.9,25.3,56.2,56.2,56.2h547.4c30.9,0,56.2-25.3,56.2-56.2V408
		C790,377.1,764.6,351.8,733.7,351.8z M640,435.8c23.2,0,42,18.8,42,42c0,23.2-18.8,42-42,42c-23.2,0-42-18.8-42-42
		C598,454.6,616.8,435.8,640,435.8z M190.1,735.7c0,0,25.7-36,38.5-48c18.3-17.1,51.3-36,89.8-36c77,0,179.7,60,179.7,60
		s37.4-36,115.5-36c77,0,128.4,60,128.4,60H190.1z"/>
	<path d="M885.7,294.1l-535.4-114c-30.3-6.4-60.3,13-66.7,43.3l-19.7,92.4h505.8c30.9,0,56.2,25.3,56.2,56.2v367.4
		c0,6.7-1.4,13.1-3.6,19c14.8-7.4,26.4-21,30-38.3L929,360.8C935.4,330.6,915.9,300.5,885.7,294.1z"/>
</g>
</svg>
