<?xml version="1.0" encoding="utf-8"?>
<!-- Generator: Adobe Illustrator 22.0.1, SVG Export Plug-In . SVG Version: 6.00 Build 0)  -->
<svg version="1.1" id="图层_1" xmlns="http://www.w3.org/2000/svg" xmlns:xlink="http://www.w3.org/1999/xlink" x="0px" y="0px"
	 viewBox="0 0 1024 1024" style="enable-background:new 0 0 1024 1024;" xml:space="preserve">
<g>
	<path d="M230.1,382.2c-21.1,0-38.4,17.3-38.4,38.4v182.3c0,21.1,17.3,38.4,38.4,38.4c21.1,0,38.4-17.3,38.4-38.4V420.6
		C268.5,399.5,251.2,382.2,230.1,382.2z"/>
	<path d="M339.5,353.4c-21.1,0-38.4,17.3-38.4,38.4v239.9c0,21.1,17.3,38.4,38.4,38.4c21.1,0,38.4-17.3,38.4-38.4V391.8
		C377.9,370.7,360.6,353.4,339.5,353.4z"/>
	<path d="M777.1,321c-21.1,0-38.4,17.3-38.4,38.4v304.7c0,21.1,17.3,38.4,38.4,38.4c21.1,0,38.4-17.3,38.4-38.4V359.4
		C815.4,338.3,798.2,321,777.1,321z"/>
	<path d="M558.3,353.4c-21.1,0-38.4,17.3-38.4,38.4v239.9c0,21.1,17.3,38.4,38.4,38.4c21.1,0,38.4-17.3,38.4-38.4V391.8
		C596.6,370.7,579.4,353.4,558.3,353.4z"/>
	<path d="M667.7,425.4c-21.1,0-38.4,17.3-38.4,38.4v96c0,21.1,17.3,38.4,38.4,38.4c21.1,0,38.4-17.3,38.4-38.4v-96
		C706,442.7,688.8,425.4,667.7,425.4z"/>
	<path d="M448.9,204.7c-21.1,0-38.4,17.3-38.4,38.4v537.4c0,21.1,17.3,38.4,38.4,38.4c21.1,0,38.4-17.3,38.4-38.4V243.1
		C487.3,221.9,470,204.7,448.9,204.7z"/>
</g>
</svg>
