<?xml version="1.0" encoding="utf-8"?>
<!-- Generator: Adobe Illustrator 22.0.1, SVG Export Plug-In . SVG Version: 6.00 Build 0)  -->
<svg version="1.1" id="图层_1" xmlns="http://www.w3.org/2000/svg" xmlns:xlink="http://www.w3.org/1999/xlink" x="0px" y="0px"
	 viewBox="0 0 1024 1024" style="enable-background:new 0 0 1024 1024;" xml:space="preserve">
<g>
	<path d="M540.5,715c-13.3-58.6,42.5-119.6,127.2-138.9c3.9-0.9,7.8-1.7,11.7-2.3l-54.3-238.7c-47.8-33.3-105.7-52.9-168.3-52.9
		c-163,0-295.1,132.1-295.1,295.1s132.1,295.1,295.1,295.1c78.9,0,150.3-31.1,203.3-81.5C599.4,789,550.8,760.4,540.5,715z
		 M452.2,678.6c-53.4,0-96.8-43.4-96.8-96.8s43.4-96.8,96.8-96.8s96.8,43.4,96.8,96.8S505.5,678.6,452.2,678.6z"/>
	<circle cx="452.2" cy="581.7" r="59.9"/>
	<path d="M849.9,252.1c-52-69.3-124.4-84-164.6-78.2c-8.1,1.2-15.9,3.1-22,7.3c-16.7,6-26.9,23.7-22.8,41.4l88.6,389.2
		c-15.1-0.5-31.3,0.9-47.8,4.7c-64.2,14.6-109.1,57.6-100.3,96.1c8.8,38.5,67.9,57.9,132,43.3c64.2-14.6,109.1-57.6,100.3-96.1
		c-0.4-1.5-1.3-2.8-1.8-4.3c0-2.4-0.3-4.9-0.9-7.3l-87-382.2C829.9,271.5,902.4,322.1,849.9,252.1z"/>
</g>
</svg>
