<?xml version="1.0" encoding="utf-8"?>
<!-- Generator: Adobe Illustrator 22.0.1, SVG Export Plug-In . SVG Version: 6.00 Build 0)  -->
<svg version="1.1" id="图层_1" xmlns="http://www.w3.org/2000/svg" xmlns:xlink="http://www.w3.org/1999/xlink" x="0px" y="0px"
	 viewBox="0 0 1024 1024" style="enable-background:new 0 0 1024 1024;" xml:space="preserve">
<path d="M825.4,468.9c-29.9-35.9-83.3-40.7-119.2-10.8c-4.8,4-9,8.4-12.6,13.1l-87.7-14.2c-3.2-13.6-8.2-27.1-15.3-39.9
	c-34.6-61.9-105.9-90.1-171.5-73l-27.7-46c12-24.2,12.3-53.7-1.8-79c-22.8-40.8-74.3-55.4-115.1-32.6
	c-40.8,22.8-55.4,74.3-32.6,115.1c17.4,31.2,51.7,47,85.2,42.6l23.5,39c-47.4,46.9-60,121.3-25.9,182.4c9.6,17.1,22,31.6,36.3,43.3
	l-25.9,68.5c-5.9,0.8-11.8,2.3-17.7,4.4c-43.8,16.2-66.3,64.9-50.1,108.7c16.2,43.8,64.9,66.3,108.7,50.1
	c43.8-16.2,66.3-64.9,50.1-108.7c-3.9-10.5-9.7-19.7-16.8-27.5l23.7-62.8c32.8,5.4,67.6,0.2,98.8-17.2
	c35.5-19.8,59.9-51.8,71.1-87.8l77,12.5c3.2,10,8.4,19.7,15.5,28.3c29.9,35.9,83.3,40.7,119.2,10.8S855.3,504.8,825.4,468.9z"/>
</svg>
