<?xml version="1.0" encoding="utf-8"?>
<!-- Generator: Adobe Illustrator 22.0.1, SVG Export Plug-In . SVG Version: 6.00 Build 0)  -->
<svg version="1.1" id="图层_1" xmlns="http://www.w3.org/2000/svg" xmlns:xlink="http://www.w3.org/1999/xlink" x="0px" y="0px"
	 viewBox="0 0 1024 1024" style="enable-background:new 0 0 1024 1024;" xml:space="preserve">
<g>
	<path d="M837.3,219.2H211.6c-46,0-83.6,37.6-83.6,83.6v46.6c2.6-0.8,5.3-1.4,8.2-1.4h776.6c2.9,0,5.6,0.6,8.2,1.4v-46.6
		C920.9,256.9,883.3,219.2,837.3,219.2z"/>
	<path d="M136.2,402.9c-2.9,0-5.6-0.6-8.2-1.4v319.7c0,46,37.6,83.6,83.6,83.6h625.7c46,0,83.6-37.6,83.6-83.6V401.5
		c-2.6,0.8-5.3,1.4-8.2,1.4H136.2z M842.7,667.1c0,30.7-25.1,55.7-55.7,55.7H605.7c-30.7,0-55.7-25.1-55.7-55.7v-87.6
		c0-30.7,25.1-55.7,55.7-55.7h181.2c30.6,0,55.7,25.1,55.7,55.7V667.1z"/>
</g>
</svg>
