<?xml version="1.0" encoding="utf-8"?>
<!-- Generator: Adobe Illustrator 22.0.1, SVG Export Plug-In . SVG Version: 6.00 Build 0)  -->
<svg version="1.1" id="图层_1" xmlns="http://www.w3.org/2000/svg" xmlns:xlink="http://www.w3.org/1999/xlink" x="0px" y="0px"
	 viewBox="0 0 1024 1024" style="enable-background:new 0 0 1024 1024;" xml:space="preserve">
<g>
	<path d="M413.5,271.2l218.3,150.5c18.4,12.7,43.8,8,56.5-10.4c12.7-18.4,8-43.8-10.4-56.5L438.9,190c-7.7-5.3-16.7-7.4-25.5-6.9
		c-8.8-0.5-17.7,1.5-25.5,6.9L149.1,354.8c-18.4,12.7-23.1,38.1-10.4,56.5c12.7,18.4,38.1,23.1,56.5,10.4L413.5,271.2z"/>
	<path d="M894.9,479.1l16-37.2l-59.8,0l1.8,12.2l-10.8,25l-75.5,0l19.1-44.2l-60.2,0l2.2,12.2l-13.8,32.1l-75.9,0l15.2-35.3l-60.2,0
		l1.9,12.8l-9.7,22.4l-48.7,0l-0.9,15.4l-27.7,64.1l38.4,0l-0.1,3.2l-43.4,100.7l131.6,0l-9.1,21.2l-100.7,0l0.3-0.6l-60.6,0
		l1.9,12.8l-34.9,80.8L413.3,794l63.5,0l28.5-66.1h1.6v9.6h48.3l4.2-9.6l46.5,0l-30.4,70.6l-17.8,17.3l63.5,0l37.9-87.9l94.5,0
		l-22.1,51.3l-18.2,17.3l63.5,0l48.7-112.9l-147.3,0l9.1-21.2l133.3,0l44.8-103.9H894l34.3-79.5L894.9,479.1z M785.3,622.1l-212.5,0
		l10.1-23.5l51.3,0v-8l164.6,0L785.3,622.1z M846.8,546.4l-280.9,0L576,523h58.3v-0.3l222.8,0L846.8,546.4z"/>
	<path d="M494.3,573.9l10-23.1h-39.6l31.8-73.8l1.2-21.4h50.9l6.8-15.7l-2.9-19.6h14l-152.7-109L192.6,467v234.8
		c7.7,20.8,27.7,35.7,51,35.7H320V599.2c0-17.6,14.4-31.9,31.9-31.9H475C482.3,567.2,488.9,569.8,494.3,573.9z"/>
</g>
</svg>
