<?xml version="1.0" encoding="utf-8"?>
<!-- Generator: Adobe Illustrator 22.0.1, SVG Export Plug-In . SVG Version: 6.00 Build 0)  -->
<svg version="1.1" id="图层_1" xmlns="http://www.w3.org/2000/svg" xmlns:xlink="http://www.w3.org/1999/xlink" x="0px" y="0px"
	 viewBox="0 0 1024 1024" style="enable-background:new 0 0 1024 1024;" xml:space="preserve">
<g>
	<path d="M718.8,200.4H604.4c-28,0-50.9,22.9-50.9,50.9v419.7c0,28,22.9,50.9,50.9,50.9h25.9c4.9-58.7,54-104.7,114-104.7
		c59.9,0,109,46.1,114,104.7h25.9c28,0,50.9-22.9,50.9-50.9V518.3C935,490.3,833.3,200.4,718.8,200.4z M818.2,459.1
		c0,11.6-10.5,21.1-23.4,21.1H665.9c-12.9,0-23.4-9.5-23.4-21.1v-174c0-11.6,10.5-21.1,23.4-21.1h52.7c52.7,0,99.5,120.2,99.5,131.8
		V459.1z"/>
	<path d="M466.4,200.4H166.9c-31.3,0-56.9,25.6-56.9,56.9v407.6c0,31.3,25.6,56.9,56.9,56.9h35.8c4.9-58.7,54-104.7,114-104.7
		s109,46.1,114,104.7h35.8c31.3,0,56.9-25.6,56.9-56.9V257.3C523.3,226,497.7,200.4,466.4,200.4z"/>
	<circle cx="316.3" cy="739.3" r="92.5"/>
	<circle cx="743" cy="739.3" r="92.5"/>
</g>
</svg>
