<?xml version="1.0" encoding="utf-8"?>
<!-- Generator: Adobe Illustrator 22.0.1, SVG Export Plug-In . SVG Version: 6.00 Build 0)  -->
<svg version="1.1" id="图层_1" xmlns="http://www.w3.org/2000/svg" xmlns:xlink="http://www.w3.org/1999/xlink" x="0px" y="0px"
	 viewBox="0 0 1024 1024" style="enable-background:new 0 0 1024 1024;" xml:space="preserve">
<g>
	<path d="M584.1,347.4V171.6l-8.3-8.2H313.1c-53.3,0-97,47.5-97,105.5v487.1c0,58,43.6,105.5,97,105.5h358.1
		c53.3,0,97-47.5,97-105.5V352.3l-4.9-4.9H584.1z M335.5,342h149.2c16.4,0,29.8,14.6,29.8,32.5c0,17.9-13.4,32.5-29.8,32.5H335.5
		c-16.4,0-29.8-14.6-29.8-32.5C305.6,356.6,319,342,335.5,342z M544.3,699.2H335.5c-16.4,0-29.8-14.6-29.8-32.5s13.4-32.5,29.8-32.5
		h208.9c16.4,0,29.8,14.6,29.8,32.5S560.8,699.2,544.3,699.2z M544.3,553.1H335.5c-16.4,0-29.8-14.6-29.8-32.5
		c0-17.9,13.4-32.5,29.8-32.5h208.9c16.4,0,29.8,14.6,29.8,32.5C574.2,538.5,560.8,553.1,544.3,553.1z"/>
	<polygon points="620.9,163.4 620.9,310.6 768.1,310.6 	"/>
</g>
</svg>
