<?xml version="1.0" encoding="utf-8"?>
<!-- Generator: Adobe Illustrator 22.0.1, SVG Export Plug-In . SVG Version: 6.00 Build 0)  -->
<svg version="1.1" id="图层_1" xmlns="http://www.w3.org/2000/svg" xmlns:xlink="http://www.w3.org/1999/xlink" x="0px" y="0px"
	 viewBox="0 0 1024 1024" style="enable-background:new 0 0 1024 1024;" xml:space="preserve">
<path d="M759.1,193.1L759.1,193.1c-33.8-29.2-85.4-25.5-114.6,8.3l-87.7,101.3l-292.9,10.7c-21.8,3.4-23,16.4-23.8,24.9l-5,54.4
	c-0.8,8.5,7.8,16.3,19,17.3l194.3,17.8L334.1,560c-0.6,0.7-1,1.5-1.6,2.2l-160.9,26.3c-14,4.6-14.1,15.9-14.2,23.2l-0.3,47.3
	c-0.1,7.4,5.9,13.5,13.3,13.5l168.4,1.2l25.3,166.5c1.1,7.3,8,12.4,15.3,11.3l46.7-7.1c7.3-1.1,18.5-2.8,21-17.3l2.8-154
	c2.4-2.2,4.9-4.2,7.1-6.7L569,536.9l61.1,196.6c3.4,10.8,12.8,17.5,20.9,15l52.2-16.2c8.1-2.5,20.6-6.4,19.4-28.5l-50.2-286.3
	l95-109.7C796.6,273.9,792.9,222.4,759.1,193.1z"/>
</svg>
