<?xml version="1.0" encoding="utf-8"?>
<!-- Generator: Adobe Illustrator 22.0.1, SVG Export Plug-In . SVG Version: 6.00 Build 0)  -->
<svg version="1.1" id="图层_1" xmlns="http://www.w3.org/2000/svg" xmlns:xlink="http://www.w3.org/1999/xlink" x="0px" y="0px"
	 viewBox="0 0 1024 1024" style="enable-background:new 0 0 1024 1024;" xml:space="preserve">
<g>
	<polygon points="650.8,128 650.8,286.6 809.5,286.6 	"/>
	<path d="M611.1,326.3V136.8l-9-8.8H319.1c-57.5,0-104.5,51.2-104.5,113.7v524.9c0,62.6,47,113.7,104.5,113.7h385.9
		c57.5,0,104.5-51.2,104.5-113.7V331.5l-5.3-5.2H611.1z M678.6,508.8c0,23.6-19.3,43-43,43h-76v76c0,23.6-19.3,43-43,43h-9.2
		c-23.6,0-43-19.3-43-43v-76h-76c-23.6,0-43-19.3-43-43v-9.2c0-23.6,19.3-43,43-43h76v-76c0-23.6,19.3-43,43-43h9.2
		c23.6,0,43,19.3,43,43v76h76c23.6,0,43,19.3,43,43V508.8z"/>
</g>
</svg>
