<?xml version="1.0" encoding="utf-8"?>
<!-- Generator: Adobe Illustrator 22.0.1, SVG Export Plug-In . SVG Version: 6.00 Build 0)  -->
<svg version="1.1" id="图层_1" xmlns="http://www.w3.org/2000/svg" xmlns:xlink="http://www.w3.org/1999/xlink" x="0px" y="0px"
	 viewBox="0 0 1024 1024" style="enable-background:new 0 0 1024 1024;" xml:space="preserve">
<path d="M817.7,383.6l-54.1-136.2c-27.2-61.8-59.7-82.4-122.4-82.4H355.6c-62.6,0-108.8,41.2-122.4,86.3l-32.5,133.4
	c-53.5,12.3-93.9,64.1-93.9,125.6v235.4c0,13.4,10.8,24.2,24.2,24.2H209v62.8c0,28.2,23.1,51.4,51.4,51.4
	c28.2,0,51.4-23.1,51.4-51.4v-62.8h400.6v62.8c0,28.2,23.1,51.4,51.4,51.4c28.2,0,51.4-23.1,51.4-51.4v-62.8h76.9
	c14,0,25.3-11.3,25.3-25.3V510.2C917.2,446.5,873.9,393.5,817.7,383.6z M389.1,233.4h224.4c49.2,0,74.8,16.2,96.2,64.8l33.2,83.6
	H273.3l19.6-80.6C303.7,265.8,339.9,233.4,389.1,233.4z M356.8,571c-4.7,24.6-24.8,44.7-49.3,49.3c-44.2,8.4-82.3-29.7-73.9-73.9
	c4.7-24.6,24.8-44.7,49.3-49.3C327.1,488.7,365.1,526.7,356.8,571z M813.3,571c-4.7,24.6-24.8,44.7-49.3,49.3
	c-44.2,8.4-82.3-29.7-73.9-73.9c4.7-24.6,24.8-44.7,49.3-49.3C783.6,488.7,821.7,526.7,813.3,571z"/>
</svg>
