<?xml version="1.0" encoding="utf-8"?>
<!-- Generator: Adobe Illustrator 22.0.1, SVG Export Plug-In . SVG Version: 6.00 Build 0)  -->
<svg version="1.1" id="图层_1" xmlns="http://www.w3.org/2000/svg" xmlns:xlink="http://www.w3.org/1999/xlink" x="0px" y="0px"
	 viewBox="0 0 1024 1024" style="enable-background:new 0 0 1024 1024;" xml:space="preserve">
<path d="M750.6,192H230.9c-31.6,0-57.5,25.9-57.5,57.5v389.6c0,31.6,25.9,57.5,57.5,57.5h164.6v104.7h-86.7
	c-13.1,0-23.8,10.7-23.8,23.8c0,13.1,10.7,23.8,23.8,23.8h363.9c13.1,0,23.8-10.7,23.8-23.8c0-13.1-10.7-23.8-23.8-23.8h-86.7V696.6
	h164.6c31.6,0,57.5-25.9,57.5-57.5V249.6C808.1,217.9,782.2,192,750.6,192z M490.7,630c10.5,0,19,8.5,19,19c0,10.5-8.5,19-19,19
	c-10.5,0-19-8.5-19-19C471.7,638.5,480.2,630,490.7,630z"/>
</svg>
