<?xml version="1.0" encoding="utf-8"?>
<!-- Generator: Adobe Illustrator 22.0.1, SVG Export Plug-In . SVG Version: 6.00 Build 0)  -->
<svg version="1.1" id="图层_1" xmlns="http://www.w3.org/2000/svg" xmlns:xlink="http://www.w3.org/1999/xlink" x="0px" y="0px"
	 viewBox="0 0 1024 1024" style="enable-background:new 0 0 1024 1024;" xml:space="preserve">
<style type="text/css">
	.st0{fill:#0A0A0A;}
</style>
<g>
	<path class="st0" d="M810.5,219.6l0.6-0.6c-3-12.4-40.2-28-52.3-24.8l-7,2l-35.2-41.5c-1.3-1.4-2.8-2.7-4.1-4.1l3,3.9
		c0.9,1.9,0.7,1-3.1-4c-10.2-10.5-21.1-20.2-32.8-29c-20.2-12.4-179,22.8-199,55.6c-6.8,11.9-11.6,24.9-14.1,38.4l-12,63.4l-7,2
		c-12,3.2-37.1,37.1-33.2,48.7c1.2,5.9,4.8,10.9,10,13.9c5.2,3,11.4,3.6,17.1,1.6l47.3-12.4c6.6,71.6,70,124.4,141.7,117.8
		c71.6-6.6,124.4-70,117.8-141.7c0-15.2-2.7-30.4-8-44.7l55.6-15.6C807.4,244.5,813.9,231.7,810.5,219.6z"/>
	<path class="st0" d="M699.8,597.6c-11.1,0-22,2.1-32.2,6.3c-0.9-1.1-0.9-2-2-2L463,395.2c-13.2-13.9-33-19.1-51.3-13.5
		c-0.8,0.1-1.5,0.5-2,1.1c-6.9,2-13.2,5.5-18.5,10.4c-123.2,75.6-208.6,261.3-208.6,414.9c-1.5,17.3-1.5,34.6,0,51.9h389.1V657.6
		l18.5,19.6c3.3,3.3,7,6.2,11.1,8.3c1.5,19.4,17.6,34.3,37.1,34.3c18.4,0.2,34.1-13,37.1-31.1h0.9v-8.3c0-12.2,9.9-22.1,22.1-22.1
		s22.1,9.9,22.1,22.1v177.3h59.3V682.6c0.9-21.9-7.1-43.3-22.2-59.3C742.6,607.3,721.8,598.1,699.8,597.6z"/>
	<path class="st0" d="M711.3,149.3c0.4,0.5,0.6,0.8,0.9,1.2c0,0,0.1,0.1,0.1,0.1L711.3,149.3z"/>
</g>
</svg>
