<?xml version="1.0" encoding="utf-8"?>
<!-- Generator: Adobe Illustrator 22.0.1, SVG Export Plug-In . SVG Version: 6.00 Build 0)  -->
<svg version="1.1" id="图层_1" xmlns="http://www.w3.org/2000/svg" xmlns:xlink="http://www.w3.org/1999/xlink" x="0px" y="0px"
	 viewBox="0 0 1024 1024" style="enable-background:new 0 0 1024 1024;" xml:space="preserve">
<g>
	<path d="M787,290.7c-5.4-76.9-69.4-137.8-147.6-137.8H382.5c-78.6,0-142.9,61.6-147.7,139c-58.9,17-102.3,71.4-102.3,135.5V731
		c0,77.6,63.5,141.1,141.1,141.1h479.1c77.6,0,141.1-63.5,141.1-141.1V427.4C893.9,361.6,848.2,306.1,787,290.7z M382.5,237.6h256.9
		c26.6,0,49.4,16.4,58.9,39.6H323.7C333.1,254,355.9,237.6,382.5,237.6z M688,582.8c0,19.4-15.9,35.3-35.3,35.3H552.1v100.7
		c0,19.4-15.9,35.3-35.3,35.3h-7.1c-19.4,0-35.3-15.9-35.3-35.3V618H373.7c-19.4,0-35.3-15.9-35.3-35.3v-7.1
		c0-19.4,15.9-35.3,35.3-35.3h100.7V439.7c0-19.4,15.9-35.3,35.3-35.3h7.1c19.4,0,35.3,15.9,35.3,35.3v100.7h100.7
		c19.4,0,35.3,15.9,35.3,35.3V582.8z"/>
</g>
</svg>
