<?xml version="1.0" encoding="utf-8"?>
<!-- Generator: Adobe Illustrator 22.0.1, SVG Export Plug-In . SVG Version: 6.00 Build 0)  -->
<svg version="1.1" id="图层_1" xmlns="http://www.w3.org/2000/svg" xmlns:xlink="http://www.w3.org/1999/xlink" x="0px" y="0px"
	 viewBox="0 0 1024 1024" style="enable-background:new 0 0 1024 1024;" xml:space="preserve">
<g>
	<path d="M461.5,405.4c-1.3-4.4-5.3-7.4-9.8-7.4H252.6c-4.4,0-8.2,2.8-9.6,6.9l-27.3,75.9h268.7L461.5,405.4z"/>
	<path d="M864.1,196.6H160.1c-41.7,0-75.8,34.1-75.8,75.8v480.2c0,41.7,34.1,75.8,75.8,75.8h703.9c41.7,0,75.8-34.1,75.8-75.8V272.4
		C939.9,230.7,905.8,196.6,864.1,196.6z M559.6,511.9c0,4.1-3.3,7.4-7.4,7.4h-15.7v125.6c0,5-4.1,9.1-9.1,9.1h-47.2
		c-5.1,0-9.1-4.1-9.1-9.1v-25.5H234.3v25.5c0,5-4.1,9.1-9.1,9.1H178c-5.1,0-9.1-4.1-9.1-9.1V519.3h-17.6c-4.1,0-7.4-3.3-7.4-7.4
		v-23.7c0-4.1,3.3-7.4,7.4-7.4h17.6l41.8-109c1.5-3.9,5.3-6.5,9.5-6.5h265c4.2,0,8,2.6,9.5,6.5l41.8,109h15.7c4.1,0,7.4,3.3,7.4,7.4
		V511.9z M838.8,630.6c0,15.8-12.9,28.8-28.8,28.8H707.5c-15.8,0-28.8-12.9-28.8-28.8v-4.8c0-15.8,12.9-28.8,28.8-28.8H810
		c15.8,0,28.8,12.9,28.8,28.8V630.6z M838.8,504.3c0,15.8-12.9,28.8-28.8,28.8H667.5c-15.8,0-28.8-12.9-28.8-28.8v-4.8
		c0-15.8,12.9-28.8,28.8-28.8H810c15.8,0,28.8,12.9,28.8,28.8V504.3z M838.8,369.1c0,15.8-12.9,28.8-28.8,28.8H627.5
		c-15.8,0-28.8-12.9-28.8-28.8v-4.8c0-15.8,12.9-28.8,28.8-28.8H810c15.8,0,28.8,12.9,28.8,28.8V369.1z"/>
	<path d="M237.2,533.7c-14.9,0-27,12.1-27,27c0,14.9,12.1,27,27,27s27-12.1,27-27C264.2,545.8,252.1,533.7,237.2,533.7z"/>
	<path d="M463.7,533.7c-14.9,0-27,12.1-27,27c0,14.9,12.1,27,27,27c14.9,0,27-12.1,27-27C490.7,545.8,478.6,533.7,463.7,533.7z"/>
</g>
</svg>
