<?xml version="1.0" encoding="utf-8"?>
<!-- Generator: Adobe Illustrator 17.0.0, SVG Export Plug-In . SVG Version: 6.00 Build 0)  -->
<!DOCTYPE svg PUBLIC "-//W3C//DTD SVG 1.1//EN" "http://www.w3.org/Graphics/SVG/1.1/DTD/svg11.dtd">
<svg version="1.1" id="图层_1" xmlns="http://www.w3.org/2000/svg" xmlns:xlink="http://www.w3.org/1999/xlink" x="0px" y="0px"
	 width="72px" height="72px" viewBox="0 0 72 72" enable-background="new 0 0 72 72" xml:space="preserve">
<path fill="#F5F4F9" d="M54.555,38.477c0,1.337-1.103,2.436-2.436,2.436h-7.704c0,0.158,0.077,0.392,0.077,0.549
	c0,0.945-0.549,1.806-1.418,2.121h4.876c1.337,0,2.436,1.103,2.436,2.436c0,1.337-1.103,2.278-2.436,2.278H18.318
	c-1.337,0-2.436-1.103-2.436-2.436c0-1.337,1.103-2.436,2.436-2.436h2.747c-0.788-0.392-1.418-1.18-1.418-2.121
	c0-0.941,0.549-1.806,1.418-2.121h-4.872c-1.652,0-2.985-1.337-2.985-2.909c0-0.473,0.077-0.865,0.392-1.337h-2.909
	c-1.418-0.077-2.436-1.18-2.436-2.513c0-0.945,0.549-1.806,1.418-2.121H7.394c-1.337,0-2.436-1.103-2.436-2.436
	c0-1.333,1.103-2.355,2.436-2.355h11.319c0.549,0,0.864-0.473,0.864-0.865c0-0.549-0.473-0.864-0.864-0.864h-4.173
	c-0.788-0.392-1.418-1.18-1.418-2.121c0-1.337,1.103-2.436,2.436-2.436h11.715c0.392,0,0.63-0.234,0.63-0.63
	c0-0.392-0.234-0.63-0.63-0.63h-1.887c-0.473-0.234-0.788-0.788-0.788-1.337v-0.788c0-0.865,0.707-1.495,1.495-1.495H49.44
	c0.864,0,1.495,0.707,1.495,1.495v0.788c0,0.549-0.392,1.103-0.788,1.337h-4.323c-0.392,0-0.63,0.234-0.63,0.63
	c0,0.392,0.234,0.63,0.63,0.63h8.411c1.337,0,2.436,1.103,2.436,2.436c0,0.945-0.549,1.806-1.418,2.121h9.671
	c1.337,0,2.436,1.103,2.436,2.436s-1.103,2.436-2.436,2.436H54.236c0.473,0.234,0.788,0.788,0.788,1.337
	c0,0.549-0.234,1.103-0.788,1.337h5.268c0.864,0,1.495,0.707,1.495,1.495c0,0.865-0.707,1.495-1.495,1.495h-7.861
	c-0.549,0-0.864,0.473-0.864,0.864c0,0.549,0.473,0.865,0.864,0.865h1.022C53.767,36.275,54.555,37.297,54.555,38.477z
	 M56.833,41.228c0-0.864,0.707-1.495,1.495-1.495h1.495c0.864,0,1.495,0.707,1.495,1.495c0,0.865-0.707,1.495-1.495,1.495h-1.495
	C57.54,42.88,56.833,42.173,56.833,41.228z M58.72,21.106c0-0.865,0.707-1.495,1.495-1.495h1.495c0.864,0,1.495,0.707,1.495,1.495
	c0,0.864-0.707,1.495-1.495,1.495h-1.414C59.43,22.597,58.72,22.047,58.72,21.106z M4.639,20.948c0-0.864,0.707-1.495,1.495-1.495
	h1.495c0.864,0,1.495,0.707,1.495,1.495c0,0.865-0.707,1.495-1.495,1.495H6.134C5.346,22.439,4.639,21.732,4.639,20.948z"/>
<path fill="#97D2F8" d="M14.94,17.383L14.153,18.8l-0.784-1.418l-1.418-0.865l1.418-0.788l0.788-1.495l0.788,1.495l1.575,0.788
	C16.52,16.518,14.94,17.383,14.94,17.383z M59.588,15.654l-0.784,1.495l-0.788-1.495l-1.575-0.788l1.575-0.788l0.788-1.495
	l0.788,1.495l1.495,0.788L59.588,15.654z M56.287,44.187L55.5,45.681l-0.788-1.495l-1.575-0.788l1.575-0.865L55.5,41.04l0.788,1.495
	l1.575,0.865L56.287,44.187z M65.482,30.746l-0.549,1.022l-0.549-1.022l-1.103-0.549l1.103-0.63l0.549-1.103l0.549,1.103l1.022,0.63
	L65.482,30.746z M25.864,11.17l-0.549,1.103l-0.63-1.103l-1.103-0.473l1.103-0.63l0.63-1.103l0.549,1.103l1.022,0.63L25.864,11.17z
	 M8.335,42.696l-0.549,1.022l-0.63-1.022l-1.018-0.549l1.022-0.63l0.63-1.103l0.549,1.103l1.103,0.63L8.335,42.696z"/>
<path fill="#E0E0E0" d="M23.612,32.233c0,4.042,2.179,7.781,5.721,9.802c3.543,2.021,7.904,2.021,11.446,0
	c3.543-2.021,5.721-5.756,5.721-9.802c0-6.248-5.126-11.319-11.446-11.319S23.612,25.986,23.612,32.233z"/>
<path fill="#F8D98B" d="M25.806,46.519c-0.703,0.384-1.537,0-1.979-0.768c-0.45-0.768-0.192-1.729,0.45-2.044
	c0.703-0.384,1.537,0,1.979,0.768C26.702,45.239,26.448,46.135,25.806,46.519z M9.63,32.698c-0.012,0.219,0.081,0.427,0.246,0.546
	c0.161,0.119,0.369,0.131,0.546,0.027c0.173-0.1,0.288-0.296,0.3-0.515c0.012-0.219-0.081-0.427-0.246-0.546
	c-0.161-0.119-0.369-0.131-0.546-0.027C9.757,32.283,9.642,32.479,9.63,32.698z M20.773,23.288
	c-0.511-0.127-0.834-0.769-0.642-1.406s0.768-0.961,1.279-0.834c0.511,0.127,0.834,0.768,0.642,1.406
	C21.86,23.035,21.284,23.419,20.773,23.288z M39.566,17.01c-0.127-0.384,0.192-0.834,0.642-0.895c0.45-0.127,0.961,0.065,1.026,0.45
	c0.065,0.384-0.192,0.834-0.642,0.895C40.142,17.648,39.631,17.39,39.566,17.01z M48.188,44.536
	c-0.45,0.192-0.961-0.065-1.218-0.642c-0.257-0.576,0-1.087,0.45-1.279c0.45-0.192,0.961,0.065,1.218,0.642
	C48.891,43.833,48.634,44.344,48.188,44.536z M58.289,27.015c-0.127,0.45-0.642,0.769-1.218,0.642
	c-0.576-0.127-0.895-0.642-0.834-1.087c0.127-0.45,0.642-0.769,1.218-0.642C58.032,26.055,58.355,26.5,58.289,27.015z"/>
<path fill="#30A6F1" d="M26.398,28.01c-0.127,0-0.319-0.127-0.384-0.319c0-0.127,0.065-0.384,0.319-0.384
	c0,0,3.646-0.703,6.586-0.703c0.192,0,0.384,0.127,0.384,0.384c0,0.192-0.127,0.384-0.384,0.384
	C30.044,27.303,26.463,28.01,26.398,28.01z M43.658,27.945c-0.065,0-3.581-0.642-6.459-0.642c-0.192,0-0.384-0.127-0.384-0.384
	c0-0.257,0.127-0.384,0.384-0.384c2.939,0,6.52,0.642,6.52,0.703c0.127,0,0.319,0.192,0.319,0.384
	C43.915,27.818,43.788,27.945,43.658,27.945z M30.655,23.911C30.594,23.911,30.594,23.911,30.655,23.911
	c-0.192,0-0.384-0.127-0.319-0.319c0-0.127,0.127-0.319,0.319-0.192c0,0,1.087,0.065,1.406-0.703
	c0.065-0.127,0.192-0.192,0.384-0.127c0.192,0.065,0.192,0.192,0.127,0.384C32.127,23.784,30.978,23.911,30.655,23.911z
	 M39.162,23.911c-0.384,0-1.472-0.065-1.852-1.026c-0.065-0.127,0-0.319,0.127-0.384c0.127-0.065,0.319,0,0.384,0.127
	c0.319,0.768,1.406,0.703,1.406,0.703c0.127,0,0.319,0.065,0.319,0.192s-0.065,0.319-0.192,0.319
	C39.228,23.911,39.228,23.911,39.162,23.911z"/>
<path fill="#30A6F1" d="M23.328,41.516c-1.948,0-3.343-0.557-4.18-1.671c-0.838-1.671,0.557-4.457,3.623-7.523h0.557
	c0.28,0.28,0.28,0.28,0,0.557c-2.786,2.786-4.18,5.014-3.343,6.405c0.557,1.114,2.786,1.671,6.128,1.114
	c3.343-0.557,7.523-2.229,11.423-4.457c4.18-2.228,7.523-4.738,10.028-7.243c2.229-2.228,3.062-4.457,2.505-5.571
	c-0.834-1.395-3.9-1.668-8.353-0.557c-0.28,0-0.557,0-0.557-0.28s0-0.557,0.281-0.557c5.01-1.391,8.353-1.11,9.191,0.838
	c0.838,1.395,0,3.9-2.505,6.405s-6.129,5.295-10.028,7.523c-4.18,2.229-8.357,3.9-11.7,4.457
	C25.276,41.239,24.166,41.516,23.328,41.516z"/>
<path fill="#30A6F1" d="M39.527,33.912c0,0.949,0.772,1.721,1.721,1.721c0.949,0,1.721-0.772,1.721-1.721
	c0-0.949-0.772-1.721-1.721-1.721C40.3,32.191,39.527,32.963,39.527,33.912z M30.367,35.458l-0.389-0.432
	c0,0,1.611-2.252,4.799-2.247c3.197,0.005,4.663,2.29,4.663,2.29l-0.346,0.389c0,0-1.735-1.842-4.385-1.824
	C32.089,33.651,30.367,35.458,30.367,35.458z"/>
<path fill="#CCCCCC" d="M21.925,53.696l-1.476,0.16l-0.039-0.359c0.505-0.048,1.01-0.097,1.515-0.148v-0.558h-0.783
	c-0.27,0-0.456,0.038-0.514,0.09c-0.019-0.09-0.083-0.289-0.135-0.398c0.103-0.019,0.205-0.128,0.321-0.276
	c0.058-0.077,0.193-0.25,0.334-0.481h-0.751v-0.34h0.956c0.077-0.154,0.154-0.302,0.225-0.462l0.424,0.128
	c-0.064,0.116-0.128,0.218-0.193,0.334h1.541v0.34h-1.752c-0.18,0.257-0.353,0.501-0.539,0.713h0.867v-0.424h0.404v0.424h1.027
	v0.353h-1.027v0.52l1.001-0.103l0.006,0.327l-1.008,0.116v0.648h-0.404L21.925,53.696L21.925,53.696z M21.187,54.421h4.147v2.356
	H24.91v-0.218h-3.319v0.231h-0.404L21.187,54.421L21.187,54.421z M21.591,54.768v0.558h3.319v-0.558H21.591z M24.91,56.219v-0.578
	h-3.319v0.578H24.91z M26.116,52.746h-0.77v1.534h-0.398v-1.534h-0.905c-0.038,0.52-0.167,1.117-0.507,1.541
	c-0.071-0.064-0.238-0.18-0.334-0.218c0.411-0.514,0.462-1.207,0.462-1.733v-0.956c0.706-0.058,1.547-0.173,2.016-0.334l0.244,0.321
	c-0.488,0.154-1.213,0.25-1.868,0.308v0.713h2.067C26.123,52.386,26.116,52.746,26.116,52.746z M31.765,56.231
	c0.327,0,0.379-0.154,0.411-1.033c0.103,0.077,0.289,0.148,0.411,0.18c-0.058,1.008-0.199,1.271-0.796,1.271h-1.232
	c-0.635,0-0.809-0.154-0.809-0.693v-2.253h-0.16c-0.27,1.252-0.918,2.439-2.561,3.1c-0.058-0.109-0.186-0.27-0.289-0.353
	c1.528-0.578,2.15-1.63,2.414-2.747h-2.337v-0.424h2.414c0.083-0.501,0.103-1.008,0.122-1.476h-2.131v-0.417h4.943v0.417h-2.381
	c-0.019,0.469-0.045,0.976-0.122,1.476h2.876v0.424h-2.349v2.253c0,0.225,0.071,0.276,0.404,0.276L31.765,56.231L31.765,56.231z
	 M34.564,52.894c-0.321,0.398-0.757,0.77-1.162,0.989c-0.051-0.109-0.154-0.244-0.237-0.327c0.462-0.205,0.956-0.616,1.264-1.053
	h-1.207v-0.359h1.342v-1.2h0.398v1.2h1.329v0.359h-1.258c0.315,0.186,0.912,0.578,1.072,0.693l-0.238,0.315
	c-0.167-0.154-0.591-0.481-0.905-0.706v0.918h-0.398L34.564,52.894L34.564,52.894z M35.553,56.315
	c-0.148-0.116-0.353-0.244-0.571-0.366c-0.462,0.379-1.014,0.629-1.598,0.783c-0.039-0.096-0.128-0.25-0.205-0.327
	c0.533-0.116,1.033-0.334,1.457-0.642c-0.327-0.167-0.68-0.334-0.995-0.449c0.135-0.199,0.282-0.443,0.417-0.7h-0.7v-0.366h0.879
	c0.071-0.148,0.128-0.283,0.173-0.417l0.379,0.071c-0.039,0.116-0.09,0.225-0.148,0.347h1.091l0.071-0.013l0.238,0.096
	c-0.167,0.552-0.437,1.001-0.777,1.361c0.19,0.104,0.377,0.216,0.558,0.334C35.822,56.026,35.553,56.315,35.553,56.315z
	 M33.89,52.085c-0.064-0.225-0.231-0.578-0.411-0.841l0.308-0.128c0.186,0.25,0.366,0.597,0.424,0.828L33.89,52.085z M34.462,54.614
	c-0.09,0.193-0.199,0.385-0.302,0.546c0.257,0.109,0.526,0.231,0.77,0.353c0.263-0.244,0.481-0.546,0.623-0.899H34.462z
	 M36.105,51.237c-0.186,0.295-0.392,0.616-0.571,0.834l-0.276-0.135c0.16-0.231,0.379-0.603,0.488-0.86L36.105,51.237z
	 M38.493,52.592c-0.148,0.969-0.366,1.772-0.706,2.433c0.327,0.61,0.757,1.091,1.297,1.38c-0.103,0.077-0.218,0.225-0.282,0.334
	c-0.514-0.302-0.918-0.757-1.239-1.322c-0.379,0.578-0.873,1.033-1.541,1.393c-0.045-0.084-0.16-0.263-0.244-0.34
	c0.706-0.347,1.213-0.828,1.573-1.451c-0.25-0.52-0.437-1.123-0.584-1.785c-0.128,0.334-0.283,0.635-0.456,0.886
	c-0.064-0.064-0.231-0.199-0.321-0.257c0.488-0.674,0.777-1.74,0.944-2.85l0.385,0.058c-0.058,0.385-0.128,0.764-0.225,1.123h1.836
	v0.398L38.493,52.592L38.493,52.592z M37.003,52.592c0.128,0.725,0.315,1.406,0.571,1.996c0.244-0.565,0.404-1.22,0.513-1.996
	C38.088,52.592,37.003,52.592,37.003,52.592z M41.555,54.139c-0.244,0.09-0.501,0.173-0.745,0.25v1.862
	c0,0.25-0.058,0.359-0.205,0.43c-0.148,0.071-0.385,0.083-0.79,0.077c-0.019-0.103-0.071-0.276-0.128-0.392
	c0.289,0.006,0.539,0.006,0.61,0c0.083,0,0.116-0.026,0.116-0.116v-1.727l-0.783,0.257l-0.116-0.411
	c0.244-0.064,0.558-0.167,0.899-0.276V52.65h-0.815v-0.398h0.815v-1.303h0.398v1.303h0.738v0.398H40.81v1.322l0.687-0.218
	C41.497,53.754,41.555,54.139,41.555,54.139z M43.968,53.953v0.822h1.245v2.003h-0.392v-0.25h-2.048v0.276h-0.379v-2.028h1.168
	v-0.822h-1.316c-0.058,0.95-0.231,2.041-0.777,2.837c-0.071-0.077-0.25-0.193-0.34-0.238c0.661-0.989,0.719-2.381,0.719-3.402
	v-1.919h3.344v1.611h-1.226v0.732h1.451v0.379L43.968,53.953L43.968,53.953z M43.564,53.574v-0.732h-1.297v0.308
	c0,0.135,0,0.276-0.006,0.424H43.564z M42.267,51.603v0.867h2.523v-0.867H42.267z M44.822,55.14h-2.048v1.027h2.048V55.14z
	 M46.831,53.837c-0.205,0-0.385,0.128-0.552,0.443l-0.302-0.205c0.25-0.443,0.565-0.635,0.867-0.635
	c0.558,0,0.873,0.616,1.277,0.616c0.205,0,0.385-0.122,0.552-0.437l0.295,0.212c-0.244,0.43-0.558,0.623-0.86,0.623
	C47.544,54.453,47.236,53.837,46.831,53.837z"/>
</svg>
