<?xml version="1.0" encoding="utf-8"?>
<!-- Generator: Adobe Illustrator 22.0.1, SVG Export Plug-In . SVG Version: 6.00 Build 0)  -->
<svg version="1.1" id="图层_1" xmlns="http://www.w3.org/2000/svg" xmlns:xlink="http://www.w3.org/1999/xlink" x="0px" y="0px"
	 viewBox="0 0 1024 1024" style="enable-background:new 0 0 1024 1024;" xml:space="preserve">
<g>
	<path d="M360.6,395h320.8c26,0,47.4-21.3,47.4-47.4V239.4c0-26-21.3-47.4-47.4-47.4H360.6c-26,0-47.4,21.3-47.4,47.4v108.3
		C313.2,373.7,334.5,395,360.6,395z"/>
	<path d="M802.4,422.1H239.6c-32.3,0-58.6,26.4-58.6,58.6v180.4c0,32.3,26.4,58.6,58.6,58.6h32.7V811c0,24.2,19.8,44.1,44.1,44.1
		s44.1-19.8,44.1-44.1v-91.2h327.4V811c0,24.2,19.8,44.1,44.1,44.1S776,835.3,776,811v-91.2h26.4c32.3,0,58.6-26.4,58.6-58.6V480.7
		C861,448.5,834.6,422.1,802.4,422.1z"/>
</g>
</svg>
