<?xml version="1.0" encoding="utf-8"?>
<!-- Generator: Adobe Illustrator 22.0.1, SVG Export Plug-In . SVG Version: 6.00 Build 0)  -->
<svg version="1.1" id="图层_1" xmlns="http://www.w3.org/2000/svg" xmlns:xlink="http://www.w3.org/1999/xlink" x="0px" y="0px"
	 viewBox="0 0 1024 1024" style="enable-background:new 0 0 1024 1024;" xml:space="preserve">
<g>
	<ellipse transform="matrix(0.9871 -0.1602 0.1602 0.9871 -37.0827 55.8092)" cx="327.6" cy="257.9" rx="84.9" ry="84.9"/>
	<path d="M327.6,359.1c-93,0-168.4,78.6-168.4,175.5H496C496,437.6,420.6,359.1,327.6,359.1z"/>
	<circle cx="676.6" cy="515.5" r="84.9"/>
	<path d="M676.6,616.7c-93,0-168.4,78.6-168.4,175.5H845C845,695.2,769.6,616.7,676.6,616.7z"/>
	<path d="M300,556.4l-64.3,17c29.6,105.3,122.5,184.1,235.1,192.9l19.9-65.6C400.1,700.3,323.8,639.4,300,556.4z"/>
	<path d="M491.6,301.9c72.6,0,136.1,38.8,171,96.8l62.6-24.5c-45.1-82.7-132.8-138.7-233.6-138.7c-24.8,0-48.7,3.5-71.5,9.8
		l16.8,64.3C454.3,304.6,472.6,301.9,491.6,301.9z"/>
</g>
</svg>
