<?xml version="1.0" encoding="utf-8"?>
<!-- Generator: Adobe Illustrator 22.0.1, SVG Export Plug-In . SVG Version: 6.00 Build 0)  -->
<svg version="1.1" id="图层_1" xmlns="http://www.w3.org/2000/svg" xmlns:xlink="http://www.w3.org/1999/xlink" x="0px" y="0px"
	 viewBox="0 0 1024 1024" style="enable-background:new 0 0 1024 1024;" xml:space="preserve">
<g>
	<path d="M800.4,194c-34.8,0-63.3,28.5-63.3,63.3v246.1H223.8c-8.7,0-17,1.8-24.6,5c-3.8,1.6-7.4,3.6-10.7,5.9
		c-6.7,4.6-12.6,10.4-17.1,17.1c-6.8,10.1-10.8,22.3-10.8,35.3V767c0,34.8,28.5,63.3,63.3,63.3c34.8,0,63.3-28.5,63.3-63.3V630
		h450.1v133.6c0,34.8,28.5,63.3,63.3,63.3s63.3-28.5,63.3-63.3V257.3C863.7,222.5,835.2,194,800.4,194z"/>
	<path d="M216.7,475.3h436c30.9,0,56.3-25.3,56.3-56.3s-25.3-56.3-56.3-56.3h-436c-30.9,0-56.3,25.3-56.3,56.3
		S185.8,475.3,216.7,475.3z"/>
</g>
</svg>
