<?xml version="1.0" encoding="utf-8"?>
<!-- Generator: Adobe Illustrator 22.0.1, SVG Export Plug-In . SVG Version: 6.00 Build 0)  -->
<svg version="1.1" id="图层_1" xmlns="http://www.w3.org/2000/svg" xmlns:xlink="http://www.w3.org/1999/xlink" x="0px" y="0px"
	 viewBox="0 0 1024 1024" style="enable-background:new 0 0 1024 1024;" xml:space="preserve">
<path d="M498.5,222.9c-160.2,0-290,129.8-290,290s129.8,290,290,290s290-129.8,290-290S658.6,222.9,498.5,222.9z M542.1,392.1h49.7
	L581.6,460h-46.3l9.9-59.4L542.1,392.1z M512.9,476.7h49.7l-9.9,67.8H506l9.9-59.5L512.9,476.7z M430.1,634.4l15.4-103.5
	l-29.9,103.5h-39.1l31.9-110.5l-47.7,110.5h-27.9L387,508.8l-3-8.4h31.2l5.8-20.3h-40.9l10.8-37.4l7.5,7.5h31.2l10.3-35.7l-22.1,2.2
	l-11.5,9.2l12-41.4L515,375l12.2-11.9l-12.3,42.7l-34.5,4l-11.7,40.5h35.4L492.9,489c0-3.5-0.9-5.9-2.8-7c-1.9-1.2-3.7-1.8-5.5-1.8
	H460l-5.8,20.3h30.3l-8.2,8.4l-18.4,125.5H430.1z M639.3,556.9l-11.2,38.8c0-3.5-0.9-5.9-2.7-7.1c-1.8-1.2-3.6-1.8-5.4-1.8h-17.6
	l-13.7,47.6H550l13.7-47.6h-90.3l10.8-37.4l7.5,7.5h80.6l50.4-174.4l-2.9-8.8h44.2l-52.9,183.2H639.3z"/>
</svg>
