<?xml version="1.0" encoding="utf-8"?>
<!-- Generator: Adobe Illustrator 22.0.1, SVG Export Plug-In . SVG Version: 6.00 Build 0)  -->
<svg version="1.1" id="图层_1" xmlns="http://www.w3.org/2000/svg" xmlns:xlink="http://www.w3.org/1999/xlink" x="0px" y="0px"
	 viewBox="0 0 1024 1024" style="enable-background:new 0 0 1024 1024;" xml:space="preserve">
<style type="text/css">
	.st0{fill:#050505;}
</style>
<g>
	<path class="st0" d="M320.3,492.6c-14.7-10.5-40.5-13.5-42.9,21.1c-2.5,34.5,75.9,70.4,88.3,99.8c12.5,29.4,2.5,39.6-19.9,42.2
		c-22.4,2.5-93.1-80.4-103.2-94.6c-10.2-14.3,0-260.9-42.3-263.5c-42.3-2.6-42.9,96.2-38.6,315.9C306,775.8,304.8,857.7,304.8,857.7
		s139.4,26.8,175.4,16.6c0,0,5-240.4-9.9-272.3C455.3,569.9,335,503.1,320.3,492.6z"/>
	<path class="st0" d="M823.7,297.6c-42.3,2.6-32.2,249.2-42.3,263.4c-10.2,14.3-80.8,97.2-103.3,94.7c-22.4-2.6-32.4-12.8-19.9-42.2
		c12.4-29.4,90.8-65.2,88.3-99.8c-2.5-34.5-28.2-31.6-42.9-21.1c-14.7,10.5-135,77.3-149.9,109.3c-14.9,32-9.9,272.4-9.9,272.4
		c36,10.2,175.4-16.6,175.4-16.6s-1.2-81.9,143.1-244.2C866.7,393.8,866,295,823.7,297.6z"/>
	<path class="st0" d="M466.9,154.1c-70.5,18.6-123.4,80.3-128.5,155.4h83.5C424.7,237.7,450.9,181.8,466.9,154.1z"/>
	<path class="st0" d="M467.1,488.9c-31.4-55.5-43.7-108.3-45.4-155.4h-83.4C343.5,408.6,396.5,470.4,467.1,488.9z"/>
	<path class="st0" d="M445,333.5c2.1,48,16.5,102.7,53.2,160.6c4.3,0.3,8.6,0.6,12.9,0.6c2.8,0,5.5-0.3,8.3-0.4
		c36.9-58,51.2-112.7,53.3-160.8H445z"/>
	<path class="st0" d="M683.9,309.5c-5.3-76.9-60.7-139.8-133.7-156.6c15.9,27.3,42.9,83.8,45.8,156.6H683.9z"/>
	<path class="st0" d="M445,309.5h127.8c-3.5-92.9-50.1-155.9-53.2-160l1-0.8c-3.2-0.2-6.3-0.5-9.5-0.5c-4.6,0-9.2,0.3-13.7,0.7
		l0.8,0.6C495.1,153.6,448.5,216.5,445,309.5z"/>
	<path class="st0" d="M683.9,333.5h-87.8c-1.7,47.5-14.2,100.7-46.1,156.7C623.1,473.4,678.6,410.4,683.9,333.5z"/>
</g>
</svg>
