<?xml version="1.0" encoding="utf-8"?>
<!-- Generator: Adobe Illustrator 22.0.1, SVG Export Plug-In . SVG Version: 6.00 Build 0)  -->
<svg version="1.1" id="图层_1" xmlns="http://www.w3.org/2000/svg" xmlns:xlink="http://www.w3.org/1999/xlink" x="0px" y="0px"
	 viewBox="0 0 1024 1024" style="enable-background:new 0 0 1024 1024;" xml:space="preserve">
<g>
	<path d="M843.4,589.9l-28.7-72.3c-14.4-32.8-31.7-43.7-65-43.7H598.1c-33.2,0-57.7,21.9-65,45.8l-17.3,70.8
		c-28.4,6.5-49.8,34-49.8,66.7v125c0,7.1,5.8,12.8,12.8,12.8h41.4v33.3c0,15,12.3,27.3,27.3,27.3s27.3-12.3,27.3-27.3v-33.3h212.6
		v33.3c0,15,12.3,27.3,27.3,27.3s27.3-12.3,27.3-27.3v-33.3h40.8c7.4,0,13.4-6,13.4-13.4V657.1C896.2,623.3,873.2,595.2,843.4,589.9
		z M564.8,546.2c5.7-18.8,24.9-36,51-36H735c26.1,0,39.7,8.6,51,34.4l17.6,44.4H554.4L564.8,546.2z M598.7,689.4
		c-2.5,13-13.1,23.7-26.2,26.2c-23.5,4.4-43.7-15.8-39.2-39.2c2.5-13,13.1-23.7,26.2-26.2C583,645.7,603.1,665.9,598.7,689.4z
		 M841,689.4c-2.5,13-13.1,23.7-26.2,26.2c-23.5,4.4-43.7-15.8-39.2-39.2c2.5-13,13.1-23.7,26.2-26.2
		C825.3,645.7,845.5,665.9,841,689.4z"/>
	<path d="M346.2,452.9l-4.3-5.8l207.7,1.2c12.8-7.3,27.9-11.8,44.9-11.8h138.9c-15-150.4-141.8-267.9-296.2-267.9
		c-164.4,0-297.7,133.3-297.7,297.7c0,159.9,126.2,290,284.3,297v-90c0-28.6,12.9-53.8,32.5-70l-160.5-0.9L346.2,452.9z
		 M229.6,602.5L310.9,399l-3.5-9.2l224.9,1.3l20.2-21.6l-172.5-1l-0.5,0.5l-44.7-0.3l39.8-43.3l-5.9-6.3l56.9,0.3l-15.3,16.3
		l182.6,1l-0.2,0.5l38.8,0.2l-48.6,53.9l41.2,0.2l-14.5,42.9c0.5-4.2-0.4-6.8-2.7-8c-2.3-1.1-4.5-1.7-6.6-1.7l-258.7-1.4l-72,179.4
		L229.6,602.5z"/>
	<path d="M400.4,505.9c2.1,1.3,4.2,1.9,6.3,2l100.7,0.6l3.1-12.8c1.5-4.9,3.7-9.6,6.2-14.2l-135.1-0.8l-29.9,88.7l140.7,0.8l7.1-29
		l-116-0.7l14.3-42.4C397.4,502,398.3,504.6,400.4,505.9z"/>
</g>
</svg>
