<?xml version="1.0" encoding="utf-8"?>
<!-- Generator: Adobe Illustrator 22.0.1, SVG Export Plug-In . SVG Version: 6.00 Build 0)  -->
<svg version="1.1" id="图层_1" xmlns="http://www.w3.org/2000/svg" xmlns:xlink="http://www.w3.org/1999/xlink" x="0px" y="0px"
	 viewBox="0 0 1024 1024" style="enable-background:new 0 0 1024 1024;" xml:space="preserve">
<g>
	<circle cx="365.5" cy="319.8" r="155"/>
	<path d="M352.6,509.3C193.2,509.3,64,651.9,64,828h577.1C641.1,651.9,511.9,509.3,352.6,509.3z"/>
	<path d="M925.3,225H727.2c-28.4,0-51.7,23.3-51.7,51.7s23.3,51.7,51.7,51.7h198.1c28.4,0,51.7-23.3,51.7-51.7S953.8,225,925.3,225z
		"/>
	<path d="M871.7,457.6H727.2c-28.4,0-51.7,23.3-51.7,51.7c0,28.4,23.3,51.7,51.7,51.7h144.5c28.4,0,51.7-23.3,51.7-51.7
		C923.4,480.8,900.2,457.6,871.7,457.6z"/>
	<path d="M818.1,681.5h-90.9c-28.4,0-51.7,23.3-51.7,51.7c0,28.4,23.3,51.7,51.7,51.7h90.9c28.4,0,51.7-23.3,51.7-51.7
		C869.8,704.8,846.6,681.5,818.1,681.5z"/>
</g>
</svg>
