<?xml version="1.0" encoding="utf-8"?>
<!-- Generator: Adobe Illustrator 22.0.1, SVG Export Plug-In . SVG Version: 6.00 Build 0)  -->
<svg version="1.1" id="图层_1" xmlns="http://www.w3.org/2000/svg" xmlns:xlink="http://www.w3.org/1999/xlink" x="0px" y="0px"
	 viewBox="0 0 1024 1024" style="enable-background:new 0 0 1024 1024;" xml:space="preserve">
<g>
	<circle cx="396.9" cy="235.1" r="93.5"/>
	<path d="M560.4,455.9c2.2,0,4.3,0.6,6.5,0.8V419c0-38.6-31.6-70.3-70.3-70.3H297.3c-38.6,0-70.3,31.6-70.3,70.3v150.8
		c0,38.6,31.6,70.3,70.3,70.3h28.9v124c1.5-3.7,3-7.4,5.3-10.8l181-271.7C523.1,465.5,541,455.9,560.4,455.9z"/>
	<path d="M790.5,782.8l-181-271.7c-15.3-22.9-49-22.9-64.3,0l-181,271.7c-17.1,25.7,1.3,60,32.1,60h362
		C789.1,842.8,807.6,808.5,790.5,782.8z M577.3,804.8c-15.7,0-28.5-12.8-28.5-28.5c0-15.7,12.8-28.5,28.5-28.5
		c15.7,0,28.5,12.8,28.5,28.5C605.8,792,593,804.8,577.3,804.8z M605.8,681.3c0,15.7-12.8,28.5-28.5,28.5
		c-15.7,0-28.5-12.8-28.5-28.5v-95c0-15.7,12.8-28.5,28.5-28.5c15.7,0,28.5,12.8,28.5,28.5V681.3z"/>
</g>
</svg>
