<?xml version="1.0" encoding="utf-8"?>
<!-- Generator: Adobe Illustrator 22.0.1, SVG Export Plug-In . SVG Version: 6.00 Build 0)  -->
<svg version="1.1" id="图层_1" xmlns="http://www.w3.org/2000/svg" xmlns:xlink="http://www.w3.org/1999/xlink" x="0px" y="0px"
	 viewBox="0 0 1024 1024" style="enable-background:new 0 0 1024 1024;" xml:space="preserve">
<path d="M788.8,440.5H610.9V212.3c0-34.8-28.5-63.3-63.3-63.3H236.9c-34.8,0-63.3,28.5-63.3,63.3v581.3c0,34.8,28.5,63.3,63.3,63.3
	h280.3h30.4h241.2c33.9,0,61.6-27.7,61.6-61.6V502.1C850.4,468.3,822.7,440.5,788.8,440.5z M355.6,613.3c0,15.7-12.9,28.6-28.6,28.6
	h-41.5c-15.7,0-28.6-12.9-28.6-28.6v-41.5c0-15.7,12.9-28.6,28.6-28.6H327c15.7,0,28.6,12.9,28.6,28.6V613.3z M355.6,468.3
	c0,15.7-12.9,28.6-28.6,28.6h-41.5c-15.7,0-28.6-12.9-28.6-28.6v-41.5c0-15.7,12.9-28.6,28.6-28.6H327c15.7,0,28.6,12.9,28.6,28.6
	V468.3z M355.6,333.6c0,15.7-12.9,28.6-28.6,28.6h-41.5c-15.7,0-28.6-12.9-28.6-28.6v-41.5c0-15.7,12.9-28.6,28.6-28.6H327
	c15.7,0,28.6,12.9,28.6,28.6V333.6z M506.8,613.3c0,15.7-12.9,28.6-28.6,28.6h-41.5c-15.7,0-28.6-12.9-28.6-28.6v-41.5
	c0-15.7,12.9-28.6,28.6-28.6h41.5c15.7,0,28.6,12.9,28.6,28.6V613.3z M506.8,468.3c0,15.7-12.9,28.6-28.6,28.6h-41.5
	c-15.7,0-28.6-12.9-28.6-28.6v-41.5c0-15.7,12.9-28.6,28.6-28.6h41.5c15.7,0,28.6,12.9,28.6,28.6V468.3z M506.8,333.6
	c0,15.7-12.9,28.6-28.6,28.6h-41.5c-15.7,0-28.6-12.9-28.6-28.6v-41.5c0-15.7,12.9-28.6,28.6-28.6h41.5c15.7,0,28.6,12.9,28.6,28.6
	V333.6z M678.4,613.3c0,15.7-12.9,28.6-28.6,28.6h-38.9h-2.6c-15.7,0-28.6-12.9-28.6-28.6v-41.5c0-15.7,12.9-28.6,28.6-28.6h2.6
	h38.9c15.7,0,28.6,12.9,28.6,28.6V613.3z M808.7,613.3c0,15.7-12.9,28.6-28.6,28.6h-41.5c-15.7,0-28.6-12.9-28.6-28.6v-41.5
	c0-15.7,12.9-28.6,28.6-28.6h41.5c15.7,0,28.6,12.9,28.6,28.6V613.3z"/>
</svg>
