<?xml version="1.0" encoding="utf-8"?>
<!-- Generator: Adobe Illustrator 22.0.1, SVG Export Plug-In . SVG Version: 6.00 Build 0)  -->
<svg version="1.1" id="图层_1" xmlns="http://www.w3.org/2000/svg" xmlns:xlink="http://www.w3.org/1999/xlink" x="0px" y="0px"
	 viewBox="0 0 1024 1024" style="enable-background:new 0 0 1024 1024;" xml:space="preserve">
<g>
	<path d="M819.6,231H218.7c-44.1,0-80.3,36.1-80.3,80.3V356c2.5-0.8,5.1-1.3,7.8-1.3H892c2.7,0,5.3,0.5,7.8,1.3v-44.8
		C899.8,267.1,863.7,231,819.6,231z"/>
	<path d="M146.3,407.3c-2.7,0-5.3-0.5-7.8-1.3v307c0,44.1,36.1,80.3,80.3,80.3h600.9c44.1,0,80.3-36.1,80.3-80.3V406
		c-2.5,0.8-5.1,1.3-7.8,1.3H146.3z M293.4,667.2c0,16-13.1,29.1-29.1,29.1s-29.1-13.1-29.1-29.1v-58.2c0-16,13.1-29.1,29.1-29.1
		s29.1,13.1,29.1,29.1V667.2z M409.7,667.2c0,16-13.1,29.1-29.1,29.1s-29.1-13.1-29.1-29.1v-58.2c0-16,13.1-29.1,29.1-29.1
		s29.1,13.1,29.1,29.1V667.2z M526.1,667.2c0,16-13.1,29.1-29.1,29.1s-29.1-13.1-29.1-29.1v-58.2c0-16,13.1-29.1,29.1-29.1
		s29.1,13.1,29.1,29.1V667.2z"/>
</g>
</svg>
