<?xml version="1.0" encoding="utf-8"?>
<!-- Generator: Adobe Illustrator 22.0.1, SVG Export Plug-In . SVG Version: 6.00 Build 0)  -->
<svg version="1.1" id="图层_1" xmlns="http://www.w3.org/2000/svg" xmlns:xlink="http://www.w3.org/1999/xlink" x="0px" y="0px"
	 viewBox="0 0 1024 1024" style="enable-background:new 0 0 1024 1024;" xml:space="preserve">
<g>
	<path d="M577.5,264.6c0-26.6-21.8-48.4-48.4-48.4H311.2c-26.6,0-48.4,21.8-48.4,48.4v36.3h314.7V264.6z"/>
	<path d="M720.3,442.7c2.6,0,5.2,0.7,7.8,2.2c2.6,1.5,3.7,4.3,3.3,8.5l19.5-44.9L634.4,408l23.4-23.7l-63.7-0.2l-1.2,8.7l-14.8,14.9
		l-39.3-0.1l-10.4-8.2l-18.5,42.4l34.9,0.1l-50.5,51.7l-0.4,0l-0.3,0.6l-14.6,32.4l99.1,0.4L566.5,554l-90.8-0.3l-10.1-6.9
		L450.7,581l103.9,0.4l-9.8,22.5l52.4,0.2l9.8-22.5l59.4,0.2c2.6,0,5.3,0.4,8,1.3c2.7,0.8,4,2.9,4,6.3l15.2-34.9l-74.6-0.3
		l11.7-26.8l55.7-0.4c2.3,0,4.8,0.6,7.5,1.9c2.7,1.3,3.8,4,3.5,8.1l18.5-42.4l-70.7-0.3l17.4-39.9l-59.8-0.2l2.5,11.3l-12.5,28.7
		l-41.9-0.2l50.5-51.7L720.3,442.7z"/>
	<path d="M778.5,390.4l2.5,11.3l-88.2,202.8l51.9,0.2l50.2-115.4l36.2,0.1l-50.2,115.4l49.8,0.2l50.2-115.4l3.1,0
		c2.9,0,5.7,0.6,8.4,1.9c2.7,1.3,3.8,4,3.5,8.1l19.3-44.3l-105.2-0.4l13-29.9l89,0.3c2.9,0,5.7,0.6,8.3,1.9c2.7,1.3,3.8,4,3.5,8.1
		L943,391L778.5,390.4z"/>
	<path d="M455.7,632.9l-42.9,98.6l0.4,0l-10.6,24.3l354.8,1.3l58.6-134.8l-361.8-1.4L455.7,632.9z M505.9,656.3l237.9,0.9l-7.6,17.5
		l-237.9-0.9L505.9,656.3z M488,697.4l237.9,0.9l-9.2,21.2l-237.9-0.9L488,697.4z"/>
	<polygon points="682.5,384.7 682.5,377 674.8,384.7 	"/>
	<path d="M439.8,511.3l3.7,2.6l19.4-43.3l5.7-0.1l5-5.1l-15.1-0.1l44.8-103l28,21.9l21.4,0.1l2.5-3.3l2.8-20.4l124,0.5
		c-2.3-24.5-22.9-43.9-48-43.9H206.3c-26.6,0-48.4,21.8-48.4,48.4V547c0,26.6,21.8,48.4,48.4,48.4h18.2v95.8
		c0,18.3,15,33.3,33.3,33.3H288c18.3,0,33.3-15,33.3-33.3v-95.8h81.8L439.8,511.3z"/>
</g>
</svg>
