<?xml version="1.0" encoding="utf-8"?>
<!-- Generator: Adobe Illustrator 22.0.1, SVG Export Plug-In . SVG Version: 6.00 Build 0)  -->
<svg version="1.1" id="图层_1" xmlns="http://www.w3.org/2000/svg" xmlns:xlink="http://www.w3.org/1999/xlink" x="0px" y="0px"
	 viewBox="0 0 1024 1024" style="enable-background:new 0 0 1024 1024;" xml:space="preserve">
<path d="M499.6,191.8c-177.3,0-321,143.7-321,321s143.7,321,321,321c177.3,0,321-143.7,321-321S676.9,191.8,499.6,191.8z
	 M607.8,528.6c13.2,0,24,10.8,24,24s-10.8,24-24,24h-84.2v88.2c0,13.2-10.8,24-24,24s-24-10.8-24-24v-88.2h-84.2
	c-13.2,0-24-10.8-24-24s10.8-24,24-24h84.2v-40.1h-84.2c-13.2,0-24-10.8-24-24c0-13.2,10.8-24,24-24h68.9l-62.7-62.7
	c-9.4-9.4-9.4-24.7,0-34c9.4-9.4,24.7-9.4,34,0l74.8,74.8l74.8-74.8c9.4-9.4,24.7-9.4,34,0c9.4,9.4,9.4,24.7,0,34l-62.7,62.7h55.5
	c13.2,0,24,10.8,24,24c0,13.2-10.8,24-24,24h-84.2v40.1H607.8z"/>
</svg>
