<?xml version="1.0" encoding="utf-8"?>
<!-- Generator: Adobe Illustrator 22.0.1, SVG Export Plug-In . SVG Version: 6.00 Build 0)  -->
<svg version="1.1" id="图层_1" xmlns="http://www.w3.org/2000/svg" xmlns:xlink="http://www.w3.org/1999/xlink" x="0px" y="0px"
	 viewBox="0 0 1024 1024" style="enable-background:new 0 0 1024 1024;" xml:space="preserve">
<g>
	<polygon points="589,394.1 542,393.8 507.1,497.1 554.2,497.4 	"/>
	<path d="M521.7,191.8c-181.5,0-328.6,147.1-328.6,328.6c0,181.5,147.1,328.6,328.6,328.6s328.6-147.1,328.6-328.6
		C850.3,338.9,703.2,191.8,521.7,191.8z M297.6,649l48.4-82.9l-3.4-10.7l59,0.3l-55.5,93.6L297.6,649z M625,683.4
		c0.4-4.3-0.6-7-3-8.3c-2.4-1.3-4.8-1.9-7.1-1.9l-249-1.4l29.3-86.8l-3.5-10.1l56.3,0.3l-20.3,60.2l213.1,1.2L625,683.4z
		 M545.9,615.7l-57.8-0.3L471,556.1l68.6,0.4l-10.9,10.6L545.9,615.7z M611.2,621.4l-17.5-59.3l68.6,0.4l-10.5,10.6l16.8,48.6
		L611.2,621.4z M737.6,405.6c0.5-4.6-0.4-7.5-2.8-8.8c-2.4-1.3-4.8-1.9-7.1-1.9l-89.4-0.5l-34.8,103.3l13.9,0.1l58.6-90.3l55.9,0.3
		l-10.5,10.6l-52,79.7l40.8,0.2l-15.8,46.8c0.2-4.2-0.9-7-3.2-8.3c-2.3-1.3-4.6-1.9-6.9-1.9l-347.7-1.9l15.4-45.8l8.9,9.1l28.5,0.1
		l2.3-80l-3.7-10.7l56.3,0.3l-2.7,90.6l16.2,0.1l34.8-103.3L387.8,393l15.5-45.8l8.9,9.1l341.5,1.9L737.6,405.6z"/>
</g>
</svg>
