<?xml version="1.0" encoding="utf-8"?>
<!-- Generator: Adobe Illustrator 22.0.1, SVG Export Plug-In . SVG Version: 6.00 Build 0)  -->
<svg version="1.1" id="图层_1" xmlns="http://www.w3.org/2000/svg" xmlns:xlink="http://www.w3.org/1999/xlink" x="0px" y="0px"
	 viewBox="0 0 1024 1024" style="enable-background:new 0 0 1024 1024;" xml:space="preserve">
<g>
	<polygon points="397.4,528.6 483.9,529.1 490.2,510.2 403.7,509.7 	"/>
	<polygon points="377.9,586.3 464.4,586.7 472.2,563.7 385.7,563.2 	"/>
	<polygon points="532.5,529.3 615.2,529.8 621.6,510.9 538.8,510.5 	"/>
	<polygon points="513,587 595.8,587.5 603.5,564.4 520.8,563.9 	"/>
	<path d="M510.6,191.8C331.9,191.8,187,336.6,187,515.3s144.9,323.5,323.5,323.5S834.1,694,834.1,515.3S689.3,191.8,510.6,191.8z
		 M721.1,424.3l-15.5,46.1c0.2-4.2-0.9-7-3.2-8.4c-2.3-1.4-4.6-2.1-6.9-2.1l-139.3-0.8l-5.6,16.8l131.8,0.2l-52.7,156.2
		c0.3-4.6-0.8-7.4-3.2-8.7c-2.4-1.2-4.7-1.9-7-1.9l-19-0.1l14,45.2l-63-0.4l-14.4-45.2l-124.5-0.7l-44.8,44.9l-63-0.3l44.4-44.9
		l-31.5-0.2l45.4-134.7l-3.5-10l142.1,0.3l5.6-16.8L350.1,458l15-44.6l9.1,9l47.1,0.3l4.8-14.2l-46.7-0.3l15.2-45.1l9,9.5l34.5,0.2
		l3.2-9.4l-3.6-9.5l55.4,0.3l-6.4,18.9l152.2,0.8l3.2-9.4l-3.7-9.5l55.4,0.3l-6.4,18.9l41.7,0.2l-15.5,46.1c0.5-4.5-0.5-7.5-3-8.7
		c-2.5-1.2-4.9-1.9-7.2-1.9l-28.1-0.1l-4.8,14.2L721.1,424.3z"/>
	<polygon points="469.9,422.9 622,423.8 626.8,409.6 474.7,408.8 	"/>
</g>
</svg>
