<?xml version="1.0" encoding="utf-8"?>
<!-- Generator: Adobe Illustrator 22.0.1, SVG Export Plug-In . SVG Version: 6.00 Build 0)  -->
<svg version="1.1" id="图层_1" xmlns="http://www.w3.org/2000/svg" xmlns:xlink="http://www.w3.org/1999/xlink" x="0px" y="0px"
	 viewBox="0 0 1024 1024" style="enable-background:new 0 0 1024 1024;" xml:space="preserve">
<path d="M802.4,835.1h-178c-0.2-0.4-0.2-0.9-0.4-1.3l-50.3-119.2c33.2-68.3,31.5-149.5-5.6-216.7l143.1-143.1
	c17.4-17.4,17.4-45.8,0.2-63.3l0,0c23.1-23.1,23.1-61,0-84.1L659,154.9c-23.1-23.1-61-23.1-84.1,0l0,0
	c-17.5-17.2-45.9-17.2-63.3,0.2L178.6,488.3c-13.2,13.2-13.2,34.8,0,48l149.3,149.3c14.5,14.5,38.2,14.5,52.7,0l143.2-143.2
	c27.9,65,14.9,143.2-38.8,195.4c-69.4,67.5-180.9,65.8-248.3-3.6c-3.6-3.7-6.8-7.5-10-11.4l-46,37.7c4.2,5.2,8.6,10.2,13.3,15.1
	c27.6,28.4,60.8,48.2,96.1,59.6h-8c-16.3,0-29.7,13.4-29.7,29.7c0,16.3,13.4,29.7,29.7,29.7h520.2c16.3,0,29.7-13.4,29.7-29.7
	C832.2,848.5,818.8,835.1,802.4,835.1z M435.1,835.1c33.3-10.7,64.7-28.8,91.4-54.8c2.5-2.5,4.8-5.2,7.2-7.7l26.4,62.5H435.1z"/>
</svg>
