<?xml version="1.0" encoding="utf-8"?>
<!-- Generator: Adobe Illustrator 22.0.1, SVG Export Plug-In . SVG Version: 6.00 Build 0)  -->
<svg version="1.1" id="图层_1" xmlns="http://www.w3.org/2000/svg" xmlns:xlink="http://www.w3.org/1999/xlink" x="0px" y="0px"
	 viewBox="0 0 1024 1024" style="enable-background:new 0 0 1024 1024;" xml:space="preserve">
<path d="M816.2,743.9h-81.6c0.1-1.7,0.5-3.3,0.5-5V313.2h39.8c16.2,0,29.4-13.3,29.4-29.4v-62.3c0-16.2-13.3-29.4-29.4-29.4h-62.3
	c-16.2,0-29.4,13.3-29.4,29.4v25.1c-2.3-0.3-4.6-0.7-7-0.7h-94v-24.4c0-16.2-13.3-29.4-29.4-29.4h-62.3c-16.2,0-29.4,13.3-29.4,29.4
	v24.4H350.3c-1.2,0-2.4,0.3-3.6,0.4v-24.8c0-16.2-13.3-29.4-29.4-29.4H255c-16.2,0-29.4,13.3-29.4,29.4v62.3
	c0,16.2,13.3,29.4,29.4,29.4h36.4v425.7c0,1.7,0.4,3.4,0.5,5H188.5c-16.2,0-29.4,13.3-29.4,29.4v35.3c0,16.2,13.3,29.4,29.4,29.4
	h627.6c16.2,0,29.4-13.3,29.4-29.4v-35.3C845.6,757.2,832.4,743.9,816.2,743.9z M488.9,365.2c0-6.4,5.2-11.6,11.6-11.6h17.1
	c6.4,0,11.6,5.2,11.6,11.6v17.1c0,6.4-5.2,11.6-11.6,11.6h-17.1c-6.4,0-11.6-5.2-11.6-11.6V365.2z M401.4,382.3
	c0,6.4-5.2,11.6-11.6,11.6h-17.1c-6.4,0-11.6-5.2-11.6-11.6v-17.1c0-6.4,5.2-11.6,11.6-11.6h17.1c6.4,0,11.6,5.2,11.6,11.6V382.3z
	 M612.4,743.9H417.6V590.7c0-19.4,15.9-35.2,35.2-35.2h124.3c19.4,0,35.2,15.9,35.2,35.2V743.9z M657.2,382.3
	c0,6.4-5.2,11.6-11.6,11.6h-17.1c-6.4,0-11.6-5.2-11.6-11.6v-17.1c0-6.4,5.2-11.6,11.6-11.6h17.1c6.4,0,11.6,5.2,11.6,11.6V382.3z"
	/>
</svg>
