<?xml version="1.0" encoding="utf-8"?>
<!-- Generator: Adobe Illustrator 22.0.1, SVG Export Plug-In . SVG Version: 6.00 Build 0)  -->
<svg version="1.1" id="图层_1" xmlns="http://www.w3.org/2000/svg" xmlns:xlink="http://www.w3.org/1999/xlink" x="0px" y="0px"
	 viewBox="0 0 1024 1024" style="enable-background:new 0 0 1024 1024;" xml:space="preserve">
<style type="text/css">
	.st0{fill:#0A0A0A;}
</style>
<g>
	<path class="st0" d="M796.8,268.3h-81.4v-3.8c0-50.5-41.3-91.9-91.9-91.9H400.5c-50.5,0-91.9,41.3-91.9,91.9v3.8h-81.4
		c-48.8,0-88.8,40-88.8,88.8v82.7h747.1v-82.7C885.5,308.3,845.6,268.3,796.8,268.3z M451.1,221.7h121.7c26.4,0,48,20.7,49.8,46.7
		H401.4C403.2,242.4,424.8,221.7,451.1,221.7z"/>
	<path class="st0" d="M585.5,550h-147v-61.2H138.5v254.1c0,48.8,40,88.8,88.8,88.8h569.5c48.8,0,88.8-40,88.8-88.8V488.8H585.5V550z
		"/>
</g>
</svg>
