<?xml version="1.0" encoding="utf-8"?>
<!-- Generator: Adobe Illustrator 22.0.1, SVG Export Plug-In . SVG Version: 6.00 Build 0)  -->
<svg version="1.1" id="图层_1" xmlns="http://www.w3.org/2000/svg" xmlns:xlink="http://www.w3.org/1999/xlink" x="0px" y="0px"
	 viewBox="0 0 1024 1024" style="enable-background:new 0 0 1024 1024;" xml:space="preserve">
<g>
	<path d="M817.7,772.7H213.8c-30.6,0-55.6,25-55.6,55.6c0,30.6,25,55.6,55.6,55.6h603.9c30.6,0,55.6-25,55.6-55.6
		C873.3,797.7,848.3,772.7,817.7,772.7z"/>
	<path d="M738.2,337.8c0-110.4-100.1-200.8-222.5-200.8h0c-122.4,0-222.5,90.3-222.5,200.8V725h445V337.8z M611.9,392.8L570,427.6
		c9.4,1.3,18.5,5.9,25,13.8c14,16.8,11.7,42.1-5.1,56.1l-119.3,99.4c-16.8,14-42.1,11.7-56.1-5.1c-14-16.8-11.7-42.1,5.1-56.1
		l41.8-34.9c-9.4-1.3-18.5-5.9-25-13.8c-14-16.8-11.7-42.1,5.1-56.1l119.3-99.4c16.8-14,42.1-11.7,56.1,5.1
		C631,353.5,628.7,378.8,611.9,392.8z"/>
</g>
</svg>
