<?xml version="1.0" encoding="utf-8"?>
<!-- Generator: Adobe Illustrator 22.0.1, SVG Export Plug-In . SVG Version: 6.00 Build 0)  -->
<svg version="1.1" id="图层_1" xmlns="http://www.w3.org/2000/svg" xmlns:xlink="http://www.w3.org/1999/xlink" x="0px" y="0px"
	 viewBox="0 0 1024 1024" style="enable-background:new 0 0 1024 1024;" xml:space="preserve">
<path d="M765.9,364.3c0-45.9-40.3-84.2-96.9-92.1c-14.4-78-79.5-137-157.4-137c-78,0-143.2,59.3-157.5,137.5
	c-49.8,9.1-96,46.8-96,91.6l-50.8,405.1c0,51.5,47,93.7,104.4,93.7h400.6c57.4,0,104.4-42.2,104.4-93.7L765.9,364.3z M511.6,176.8
	c50.3,0,92.5,39.8,105.4,93.9H406.2C419.1,216.6,461.3,176.8,511.6,176.8z M525.1,641.5c-98.7,0-180.2-88.5-190-201.6h60.8
	c8.7,82.6,63.2,146.6,129.2,146.6s120.5-64,129.2-146.6h60.8C705.3,552.9,623.8,641.5,525.1,641.5z"/>
</svg>
