<?xml version="1.0" encoding="utf-8"?>
<!-- Generator: Adobe Illustrator 22.0.1, SVG Export Plug-In . SVG Version: 6.00 Build 0)  -->
<svg version="1.1" id="图层_1" xmlns="http://www.w3.org/2000/svg" xmlns:xlink="http://www.w3.org/1999/xlink" x="0px" y="0px"
	 viewBox="0 0 1024 1024" style="enable-background:new 0 0 1024 1024;" xml:space="preserve">
<g>
	<path d="M707.6,704.4l-31-24.3c-23.7-18.6-58.4-14.4-77,9.4L585.1,708c-8.6,22.4-36.2,22.3-56.7,18.6c-44.1-25-88-60.2-127.3-104.3
		c-37-41.5-65.6-86.2-85.4-130.2c-3.1-18.3-1.9-40.6,16.2-53.8l17.6-15.7c22.5-20,24.5-54.9,4.5-77.4l-26.2-29.4
		c-20-22.5-54.9-24.5-77.4-4.5l-17.6,15.7c-5.8,5.9-10,10.7-13.2,14.9l-0.6-0.4c-67.1,79.1-19.3,227.2,96.4,357.1
		c115.3,129.5,269.8,182.5,356.4,126c5.8-2.4,14.9-9.5,30.6-24.6l14.5-18.5C735.5,757.6,731.3,723,707.6,704.4z"/>
	<path d="M663,579.7c11.9-59.1-5.8-120.3-47.3-163.8c-41.6-43.5-101.9-64-161.5-54.8l15.1,97.7c27.6-4.3,55.7,5.2,74.9,25.4
		c19.3,20.2,27.5,48.6,21.9,76L663,579.7z"/>
	<path d="M748.5,274.1c-71.1-74.4-174.3-109.5-276.3-93.7l15.1,97.7c70-10.8,140.9,13.2,189.7,64.3c48.8,51.1,69.5,123,55.5,192.5
		l96.9,19.6C849.9,453.3,819.6,348.5,748.5,274.1z"/>
</g>
</svg>
