<?xml version="1.0" encoding="utf-8"?>
<!-- Generator: Adobe Illustrator 22.0.1, SVG Export Plug-In . SVG Version: 6.00 Build 0)  -->
<svg version="1.1" id="图层_1" xmlns="http://www.w3.org/2000/svg" xmlns:xlink="http://www.w3.org/1999/xlink" x="0px" y="0px"
	 viewBox="0 0 1024 1024" style="enable-background:new 0 0 1024 1024;" xml:space="preserve">
<g>
	<circle cx="389.1" cy="233.3" r="84.2"/>
	<path d="M542.1,405.6v-6.7c0-34.8-28.5-63.2-63.2-63.2H299.3c-34.8,0-63.2,28.5-63.2,63.2v135.8c0,34.8,28.5,63.2,63.2,63.2h26
		v116.6c0,26,21.3,47.3,47.3,47.3h36.6c4.5,0,8.7-0.8,12.8-2C400.5,723.1,388,680.6,388,635C388,531.3,451.7,442.6,542.1,405.6z"/>
	<path d="M624.6,438.3c-108.6,0-196.7,88.1-196.7,196.7c0,108.6,88.1,196.7,196.7,196.7c108.6,0,196.7-88.1,196.7-196.7
		C821.3,526.4,733.2,438.3,624.6,438.3z M624.6,780.4c-18.8,0-34.2-15.4-34.2-34.2c0-18.8,15.4-34.2,34.2-34.2
		c18.8,0,34.2,15.4,34.2,34.2C658.8,765,643.4,780.4,624.6,780.4z M658.8,643.6c0,18.8-15.4,34.2-34.2,34.2
		c-18.8,0-34.2-15.4-34.2-34.2V541c0-18.8,15.4-34.2,34.2-34.2c18.8,0,34.2,15.4,34.2,34.2V643.6z"/>
</g>
</svg>
