<?xml version="1.0" encoding="utf-8"?>
<!-- Generator: Adobe Illustrator 22.0.1, SVG Export Plug-In . SVG Version: 6.00 Build 0)  -->
<svg version="1.1" id="图层_1" xmlns="http://www.w3.org/2000/svg" xmlns:xlink="http://www.w3.org/1999/xlink" x="0px" y="0px"
	 viewBox="0 0 1024 1024" style="enable-background:new 0 0 1024 1024;" xml:space="preserve">
<path d="M757.5,643.6v-396c0-52.7-43.1-95.8-95.8-95.8H316.8c-52.7,0-95.8,43.1-95.8,95.8v396c0,51.3,40.9,93.4,91.6,95.6L263.1,825
	c-10.5,18.3-4.2,41.8,14,52.3c18.3,10.5,41.8,4.2,52.3-14L401,739.4h186.6l71.5,123.9c10.5,18.3,34.1,24.6,52.3,14
	c18.3-10.5,24.6-34.1,14-52.3l-50-86.6C721.7,731.6,757.5,691.6,757.5,643.6z M306.4,291c0-34.4,28.1-62.5,62.5-62.5h240.6
	c34.4,0,62.5,28.1,62.5,62.5v168.8c0,34.4-28.1,62.5-62.5,62.5H368.9c-34.4,0-62.5-28.1-62.5-62.5V291z M382.1,674.4
	c-6.1-1.5-12.4-1.5-18.4,0c-16.7-4.2-29-19.1-29-37.1c0-21.2,17.2-38.3,38.3-38.3c21.2,0,38.3,17.2,38.3,38.3
	C411.3,655.3,398.8,670.3,382.1,674.4z M564.6,637.3c0-21.2,17.2-38.3,38.3-38.3s38.3,17.2,38.3,38.3c0,16.7-10.8,30.8-25.7,36
	c-4.4,0-8.8,0.7-13.1,2.3C581.5,675.3,564.6,658.3,564.6,637.3z"/>
</svg>
