<?xml version="1.0" encoding="utf-8"?>
<!-- Generator: Adobe Illustrator 22.0.1, SVG Export Plug-In . SVG Version: 6.00 Build 0)  -->
<svg version="1.1" id="图层_1" xmlns="http://www.w3.org/2000/svg" xmlns:xlink="http://www.w3.org/1999/xlink" x="0px" y="0px"
	 viewBox="0 0 1024 1024" style="enable-background:new 0 0 1024 1024;" xml:space="preserve">
<g>
	<path d="M850.6,236.8H197c-24.6,0-44.7,20.1-44.7,44.7v462.1c0,24.6,20.1,44.7,44.7,44.7h653.6c24.6,0,44.7-20.1,44.7-44.7V281.4
		C895.3,256.9,875.2,236.8,850.6,236.8z M352.4,341c40.5,0,73.3,32.8,73.3,73.3c0,40.5-32.8,73.3-73.3,73.3s-73.3-32.8-73.3-73.3
		C279.1,373.8,311.9,341,352.4,341z M209.9,654.6c0-77,61.1-139.4,136.4-139.4c75.4,0,136.4,62.4,136.4,139.4H209.9z M695.2,659.6
		c-81.1,0-147.1-66-147.1-147.1s66-147.1,147.1-147.1s147.1,66,147.1,147.1S776.3,659.6,695.2,659.6z"/>
	<path d="M695.2,404.7c-59.5,0-107.8,48.4-107.8,107.8s48.4,107.8,107.8,107.8S803,572,803,512.5S754.6,404.7,695.2,404.7z
		 M695.2,595.9c-10.8,0-19.6-8.8-19.6-19.6c0-10.8,8.8-19.6,19.6-19.6c10.8,0,19.6,8.8,19.6,19.6C714.8,587,705.9,595.9,695.2,595.9
		z M714.8,517.4c0,10.8-8.8,19.6-19.6,19.6c-10.8,0-19.6-8.8-19.6-19.6V439c0-10.8,8.8-19.6,19.6-19.6c10.8,0,19.6,8.8,19.6,19.6
		V517.4z"/>
</g>
</svg>
