<?xml version="1.0" encoding="utf-8"?>
<!-- Generator: Adobe Illustrator 22.0.1, SVG Export Plug-In . SVG Version: 6.00 Build 0)  -->
<svg version="1.1" id="图层_1" xmlns="http://www.w3.org/2000/svg" xmlns:xlink="http://www.w3.org/1999/xlink" x="0px" y="0px"
	 viewBox="0 0 1024 1024" style="enable-background:new 0 0 1024 1024;" xml:space="preserve">
<g>
	<path d="M321.2,759.7h354V477.3c0-80.5-79.6-146.4-177-146.4c-97.3,0-177,65.9-177,146.4V759.7z"/>
	<path d="M738.5,806.5H258c-24.3,0-44.2,19.9-44.2,44.2c0,24.3,19.9,44.2,44.2,44.2h480.4c24.3,0,44.3-19.9,44.3-44.2
		C782.7,826.5,762.8,806.5,738.5,806.5z"/>
	<path d="M503.3,278.4c20.7,0,37.6-16.9,37.6-37.6v-75.2c0-20.7-16.9-37.6-37.6-37.6s-37.6,16.9-37.6,37.6v75.2
		C465.7,261.5,482.6,278.4,503.3,278.4z"/>
	<path d="M716.8,346.5l50.2-56c13.8-15.4,12.5-39.3-2.9-53.1c-15.4-13.8-39.3-12.5-53.1,2.9l-50.2,56c-13.8,15.4-12.5,39.3,2.9,53.1
		C679.1,363.3,703,361.9,716.8,346.5z"/>
	<path d="M289.8,346.5c13.8,15.4,37.7,16.7,53.1,2.9c15.4-13.8,16.7-37.7,2.9-53.1l-50.2-56c-13.8-15.4-37.7-16.7-53.1-2.9
		c-15.4,13.8-16.7,37.7-2.9,53.1L289.8,346.5z"/>
	<path d="M288,500.3c7.3-19.4-2.6-41.1-22-48.4l-70.4-26.4c-19.4-7.3-41.1,2.6-48.4,22c-7.3,19.4,2.6,41.1,22,48.4l70.4,26.4
		C258.9,529.6,280.7,519.7,288,500.3z"/>
	<path d="M859.5,447.5c-7.3-19.4-29-29.3-48.4-22l-70.4,26.4c-19.4,7.3-29.3,29-22,48.4c7.3,19.4,29,29.3,48.4,22l70.4-26.4
		C856.9,488.7,866.8,466.9,859.5,447.5z"/>
</g>
</svg>
