<?xml version="1.0" encoding="utf-8"?>
<!-- Generator: Adobe Illustrator 22.0.1, SVG Export Plug-In . SVG Version: 6.00 Build 0)  -->
<svg version="1.1" id="图层_1" xmlns="http://www.w3.org/2000/svg" xmlns:xlink="http://www.w3.org/1999/xlink" x="0px" y="0px"
	 viewBox="0 0 1024 1024" style="enable-background:new 0 0 1024 1024;" xml:space="preserve">
<g>
	<ellipse transform="matrix(0.9871 -0.1602 0.1602 0.9871 -38.735 54.3545)" cx="317.8" cy="267.4" rx="92.5" ry="92.5"/>
	<path d="M317.8,377.6c-101.3,0-183.4,85.6-183.4,191.2h366.8C501.2,463.2,419.1,377.6,317.8,377.6z"/>
	<circle cx="697.9" cy="548" r="92.5"/>
	<path d="M697.9,658.2c-101.3,0-183.4,85.6-183.4,191.2h366.8C881.3,743.8,799.2,658.2,697.9,658.2z"/>
	<path d="M287.7,592.6l-70,18.5c32.3,114.7,133.4,200.5,256,210.1l21.7-71.5C396.7,749.3,313.6,683,287.7,592.6z"/>
	<path d="M496.4,315.3c79.1,0,148.2,42.3,186.2,105.4l68.2-26.7c-49.1-90-144.6-151.1-254.4-151.1c-27,0-53.1,3.8-77.9,10.7
		l18.3,70.1C455.8,318.3,475.7,315.3,496.4,315.3z"/>
</g>
</svg>
