<?xml version="1.0" encoding="utf-8"?>
<!-- Generator: Adobe Illustrator 22.0.1, SVG Export Plug-In . SVG Version: 6.00 Build 0)  -->
<svg version="1.1" id="图层_1" xmlns="http://www.w3.org/2000/svg" xmlns:xlink="http://www.w3.org/1999/xlink" x="0px" y="0px"
	 viewBox="0 0 1024 1024" style="enable-background:new 0 0 1024 1024;" xml:space="preserve">
<path d="M886.7,198H133.8c-28.3,0-51.5,23.2-51.5,51.5v532.3c0,28.3,23.2,51.5,51.5,51.5h752.9c28.3,0,51.5-23.2,51.5-51.5V249.4
	C938.2,221.1,915,198,886.7,198z M519.3,282.8c60.1,0,108.8,48.7,108.8,108.8c0,60.1-48.7,108.8-108.8,108.8
	c-60.1,0-108.8-48.7-108.8-108.8C410.5,331.5,459.2,282.8,519.3,282.8z M307.7,748.4c0-123.5,90.7-223.7,202.5-223.7
	c111.9,0,202.5,100.2,202.5,223.7H307.7z"/>
</svg>
