<?xml version="1.0" encoding="utf-8"?>
<!-- Generator: Adobe Illustrator 22.0.1, SVG Export Plug-In . SVG Version: 6.00 Build 0)  -->
<svg version="1.1" id="图层_1" xmlns="http://www.w3.org/2000/svg" xmlns:xlink="http://www.w3.org/1999/xlink" x="0px" y="0px"
	 viewBox="0 0 1024 1024" style="enable-background:new 0 0 1024 1024;" xml:space="preserve">
<path d="M829.8,548.8c0.1-0.2,0.2-0.4,0.3-0.5c0.6-0.9,1.1-1.9,1.6-2.8c0.6-1.1,1.3-2.3,1.8-3.4c0.2-0.4,0.3-0.8,0.4-1.2
	c0.4-1.1,0.8-2.2,1.1-3.3c0.3-1.1,0.7-2.1,0.9-3.2c0.1-0.5,0.2-1.1,0.3-1.6c0.2-1.1,0.3-2.2,0.4-3.4c0.1-1.1,0.2-2.2,0.3-3.3
	c0-0.3,0.1-0.6,0.1-0.9s-0.1-0.6-0.1-0.9c0-1.1-0.2-2.2-0.3-3.3c-0.1-1.1-0.2-2.3-0.4-3.4c-0.1-0.5-0.2-1.1-0.3-1.6
	c-0.2-1.1-0.6-2.1-0.9-3.2c-0.3-1.1-0.7-2.2-1.1-3.3c-0.2-0.4-0.3-0.8-0.4-1.2c-0.5-1.2-1.1-2.3-1.8-3.4c-0.5-1-1-1.9-1.6-2.8
	c-0.1-0.2-0.2-0.4-0.3-0.5c-0.1-0.1-0.1-0.2-0.2-0.3c-0.8-1.3-1.8-2.4-2.8-3.6c-0.4-0.4-0.6-0.9-1-1.4L709.6,369.7
	c-16-17.4-43.3-18.5-60.7-2.6s-18.5,43.3-2.6,60.7l50,54.4H407.7c-23.6,0-42.9,19.3-42.9,42.9c0,23.6,19.3,42.9,42.9,42.9h288.6
	l-50,54.4c-16,17.4-14.8,44.7,2.6,60.7c17.4,16,44.7,14.8,60.7-2.6l116.2-126.5c0.4-0.4,0.7-0.9,1-1.4c1-1.2,2-2.3,2.8-3.6
	C829.7,549,829.7,548.9,829.8,548.8z"/>
<path d="M786.9,281.9H243.2c-27.5,0-50.1-22.5-50.1-50.1v0c0-27.5,22.5-50.1,50.1-50.1h543.7c27.5,0,50.1,22.5,50.1,50.1v0
	C837,259.3,814.5,281.9,786.9,281.9z"/>
<path d="M786.9,854.2H243.2c-27.5,0-50.1-22.5-50.1-50.1v0c0-27.5,22.5-50.1,50.1-50.1h543.7c27.5,0,50.1,22.5,50.1,50.1v0
	C837,831.7,814.5,854.2,786.9,854.2z"/>
</svg>
