<?xml version="1.0" encoding="utf-8"?>
<!-- Generator: Adobe Illustrator 22.0.1, SVG Export Plug-In . SVG Version: 6.00 Build 0)  -->
<svg version="1.1" id="图层_1" xmlns="http://www.w3.org/2000/svg" xmlns:xlink="http://www.w3.org/1999/xlink" x="0px" y="0px"
	 viewBox="0 0 1024 1024" style="enable-background:new 0 0 1024 1024;" xml:space="preserve">
<path d="M778.4,205.5c-71.3,0-129.6,58.3-129.6,129.6c0,41,19.3,77.6,49.3,101.4L605,621.1c-1.8-2.5-3.8-4.9-6.4-7L458.2,500.9
	c0.4-3.4,0.6-6.8,0.6-10.3c0-52.3-42.8-95-95-95s-95,42.8-95,95c0,20.6,6.7,39.7,18,55.3l-73.6,127.5c-27.4,5.7-48.1,30-48.1,59.2
	c0,33.4,27.1,60.5,60.5,60.5s60.5-27.1,60.5-60.5c0-11.6-3.4-22.3-9.1-31.5l67.7-117.3c6.2,1.3,12.6,1.9,19.1,1.9
	c23.3,0,44.7-8.6,61.3-22.6l127.3,102.6c-4.5,9.9-7.2,20.7-7.2,32.3c0,42.9,34.8,77.8,77.8,77.8s77.8-34.8,77.8-77.8
	c0-23.6-10.8-44.5-27.4-58.8l88.6-175.7c5.4,0.7,10.9,1.2,16.5,1.2c71.3,0,129.6-58.3,129.6-129.6S849.7,205.5,778.4,205.5z"/>
</svg>
