<?xml version="1.0" encoding="utf-8"?>
<!-- Generator: Adobe Illustrator 22.0.1, SVG Export Plug-In . SVG Version: 6.00 Build 0)  -->
<svg version="1.1" id="图层_1" xmlns="http://www.w3.org/2000/svg" xmlns:xlink="http://www.w3.org/1999/xlink" x="0px" y="0px"
	 viewBox="0 0 1024 1024" style="enable-background:new 0 0 1024 1024;" xml:space="preserve">
<path d="M910.8,176H113.2c-30,0-54.5,24.5-54.5,54.5v563.9c0,30,24.5,54.5,54.5,54.5h797.6c30,0,54.5-24.5,54.5-54.5V230.5
	C965.3,200.5,940.8,176,910.8,176z M388.3,292.8c52.8,0,95.5,42.8,95.5,95.5s-42.8,95.5-95.5,95.5s-95.5-42.8-95.5-95.5
	S335.5,292.8,388.3,292.8z M198.9,727.5c0-109,84.8-197.4,189.4-197.4c104.6,0,189.4,88.4,189.4,197.4H198.9z M801.8,667.5h-92
	c-18,0-32.7-14.7-32.7-32.7c0-18,14.7-32.7,32.7-32.7h92c18,0,32.7,14.7,32.7,32.7C834.5,652.8,819.8,667.5,801.8,667.5z
	 M801.8,537.2H646c-18,0-32.7-14.7-32.7-32.7c0-18,14.7-32.7,32.7-32.7h155.8c18,0,32.7,14.7,32.7,32.7
	C834.5,522.5,819.8,537.2,801.8,537.2z M801.8,406.8H597.3c-18,0-32.7-14.7-32.7-32.7c0-18,14.7-32.7,32.7-32.7h204.5
	c18,0,32.7,14.7,32.7,32.7C834.5,392.1,819.8,406.8,801.8,406.8z"/>
</svg>
