<?xml version="1.0" encoding="utf-8"?>
<!-- Generator: Adobe Illustrator 22.0.1, SVG Export Plug-In . SVG Version: 6.00 Build 0)  -->
<svg version="1.1" id="图层_1" xmlns="http://www.w3.org/2000/svg" xmlns:xlink="http://www.w3.org/1999/xlink" x="0px" y="0px"
	 viewBox="0 0 1024 1024" style="enable-background:new 0 0 1024 1024;" xml:space="preserve">
<g>
	
		<ellipse transform="matrix(9.853812e-02 -0.9951 0.9951 9.853812e-02 111.2081 1044.7124)" cx="632.2" cy="461" rx="110.5" ry="110.5"/>
	<path d="M632.2,592.6c-125.4,0-227,93.8-227,209.4c0,0,89.6,29.7,235.3,29.7c145.7,0,218.8-29.7,218.8-29.7
		C859.3,686.3,757.6,592.6,632.2,592.6z"/>
	<path d="M542.5,576.5c-38.4-24.2-64.1-66.9-64.1-115.5c0-72.5,56.9-131.8,128.3-136.1v-69c0-32.3-26.5-58.8-58.8-58.8h-23H501
		h-39.6H316.2h-39.6h-44.1h-2.7c-32.3,0-58.8,26.5-58.8,58.8v392.8c0,32.3,26.5,58.8,58.8,58.8h153.5
		C412.9,644.8,471.1,596.4,542.5,576.5z M329.4,302.7h68.4c14.5,0,26.4,11.9,26.4,26.4c0,14.5-11.9,26.4-26.4,26.4h-68.4
		c-14.5,0-26.4-11.9-26.4-26.4C303,314.5,314.9,302.7,329.4,302.7z M329.4,421.5h118.8c14.5,0,26.4,11.9,26.4,26.4
		c0,14.5-11.9,26.4-26.4,26.4H329.4c-14.5,0-26.4-11.9-26.4-26.4C303,433.4,314.9,421.5,329.4,421.5z M329.4,593.2
		c-14.5,0-26.4-11.9-26.4-26.4s11.9-26.4,26.4-26.4h118.8c14.5,0,26.4,11.9,26.4,26.4s-11.9,26.4-26.4,26.4H329.4z"/>
</g>
</svg>
