<?xml version="1.0" encoding="utf-8"?>
<!-- Generator: Adobe Illustrator 22.0.1, SVG Export Plug-In . SVG Version: 6.00 Build 0)  -->
<svg version="1.1" id="图层_1" xmlns="http://www.w3.org/2000/svg" xmlns:xlink="http://www.w3.org/1999/xlink" x="0px" y="0px"
	 viewBox="0 0 1024 1024" style="enable-background:new 0 0 1024 1024;" xml:space="preserve">
<path d="M515.2,145.9c-202.1,0-365.9,163.8-365.9,365.9S313,877.8,515.2,877.8c202.1,0,365.9-163.8,365.9-365.9
	S717.3,145.9,515.2,145.9z M638.5,529.8c15.1,0,27.4,12.3,27.4,27.4s-12.3,27.4-27.4,27.4h-95.9v100.5c0,15.1-12.3,27.4-27.4,27.4
	c-15.1,0-27.4-12.3-27.4-27.4V584.7h-95.9c-15.1,0-27.4-12.3-27.4-27.4s12.3-27.4,27.4-27.4h95.9v-45.7h-95.9
	c-15.1,0-27.4-12.3-27.4-27.4c0-15.1,12.3-27.4,27.4-27.4h78.5l-71.5-71.5c-10.7-10.7-10.7-28.1,0-38.8c10.7-10.7,28.1-10.7,38.8,0
	l85.2,85.2l85.2-85.2c10.7-10.7,28.1-10.7,38.8,0c10.7,10.7,10.7,28.1,0,38.8l-71.5,71.5h63.3c15.1,0,27.4,12.3,27.4,27.4
	c0,15.1-12.3,27.4-27.4,27.4h-95.9v45.7H638.5z"/>
</svg>
